<?xml version="1.0" encoding="UTF-8" standalone="no"?>
<svg
   xmlns:dc="http://purl.org/dc/elements/1.1/"
   xmlns:cc="http://creativecommons.org/ns#"
   xmlns:rdf="http://www.w3.org/1999/02/22-rdf-syntax-ns#"
   xmlns:svg="http://www.w3.org/2000/svg"
   xmlns="http://www.w3.org/2000/svg"
   xmlns:sodipodi="http://sodipodi.sourceforge.net/DTD/sodipodi-0.dtd"
   xmlns:inkscape="http://www.inkscape.org/namespaces/inkscape"
   id="emoji"
   viewBox="0 0 72 72"
   version="1.1"
   sodipodi:docname="1F3AC.svg"
   inkscape:version="0.92.4 (unknown)">
  <metadata
     id="metadata80">
    <rdf:RDF>
      <cc:Work
         rdf:about="">
        <dc:format>image/svg+xml</dc:format>
        <dc:type
           rdf:resource="http://purl.org/dc/dcmitype/StillImage" />
      </cc:Work>
    </rdf:RDF>
  </metadata>
  <defs
     id="defs78" />
  <sodipodi:namedview
     pagecolor="#ffffff"
     bordercolor="#666666"
     borderopacity="1"
     objecttolerance="10"
     gridtolerance="10"
     guidetolerance="10"
     inkscape:pageopacity="0"
     inkscape:pageshadow="2"
     inkscape:window-width="640"
     inkscape:window-height="480"
     id="namedview76"
     showgrid="false"
     inkscape:zoom="3.2777778"
     inkscape:cx="36"
     inkscape:cy="36"
     inkscape:window-x="0"
     inkscape:window-y="27"
     inkscape:window-maximized="0"
     inkscape:current-layer="emoji" />
  <g
     id="color"
     transform="matrix(1.3163715,0,0,1.3163715,-8.5061281,-9.1987989)">
    <circle
       cx="15.7986"
       cy="30.9666"
       r="1.5112"
       id="circle2"
       style="fill:#ffffff;stroke:none" />
    <path
       d="M 16.5878,37.3974 V 54.97 c 0,1.1026 1.8975,3 3,3 l 33.6372,0.2321 c 1.1025,0 2.2763,-2.1295 2.2763,-3.2321 V 37.3974 Z"
       id="path4"
       inkscape:connector-curvature="0"
       style="fill:#3f3f3f;stroke:none" />
    <polygon
       points="51.0755,15.6178 43.9229,11.9299 41.3736,12.9105 48.5254,16.5978 "
       id="polygon6"
       style="fill:#3f3f3f;stroke:none" />
    <polygon
       points="29.5359,17.2084 37.2265,21.1804 39.9624,20.129 32.2753,16.158 "
       id="polygon8"
       style="fill:#3f3f3f;stroke:none" />
    <polygon
       points="25.3257,25.7192 29.7098,24.0727 22.0853,20.0666 18.6391,21.7152 "
       id="polygon10"
       style="fill:#3f3f3f;stroke:none" />
    <polygon
       points="20.5536,37.0496 24.1487,37.0496 29.2578,31.3147 25.6628,31.3147 "
       id="polygon12"
       style="fill:#3f3f3f;stroke:none" />
    <polygon
       points="32.5865,37.3974 35.4963,37.3974 41.225,30.9669 38.3154,30.9669 "
       id="polygon14"
       style="fill:#3f3f3f;stroke:none" />
    <polygon
       points="53.225,30.9669 50.3154,30.9669 44.5865,37.3974 47.4963,37.3974 "
       id="polygon16"
       style="fill:#3f3f3f;stroke:none" />
    <polygon
       points="42.4806,31.4508 37.6136,36.9135 43.3309,36.9135 48.1979,31.4508 "
       id="polygon18"
       style="fill:#ffffff;stroke:none" />
    <polygon
       points="55.0593,30.9664 49.6923,36.9903 55.0593,36.9903 "
       id="polygon20"
       style="fill:#ffffff;stroke:none" />
    <circle
       cx="15.7987"
       cy="30.9667"
       r="2.5116"
       id="circle22"
       style="fill:#3f3f3f;stroke:none" />
    <path
       d="m 16.5271,33.8909 v 3.3443 h 3.2915 l 5.4403,-6.1061 h -6.5834 c -0.3506,1.169 -1.1208,2.1474 -2.1484,2.7618 z"
       id="path24"
       inkscape:connector-curvature="0"
       style="fill:#ffffff;stroke:none" />
    <polygon
       points="30.4818,31.4586 25.6288,36.9057 31.3297,36.9057 36.1827,31.4586 "
       id="polygon26"
       style="fill:#ffffff;stroke:none" />
    <polygon
       points="48.4776,10.216 45.9297,11.195 49.5767,13.0755 "
       id="polygon28"
       style="fill:#ffffff;stroke:none" />
    <polygon
       points="40.9335,19.5284 47.2216,17.1118 40.0134,13.3957 33.7331,15.8092 "
       id="polygon30"
       style="fill:#ffffff;stroke:none" />
    <polygon
       points="29.8998,23.6317 35.4015,21.5173 28.4988,17.9523 23.065,20.0406 "
       id="polygon32"
       style="fill:#ffffff;stroke:none" />
    <path
       d="m 17.5363,22.2109 -4.9559,1.9047 1.5446,4.0189 c 0.3313,-0.0798 0.6724,-0.1334 1.0278,-0.1334 0.658,0 1.2769,0.155 1.8383,0.4148 0.0521,-0.0293 0.092,-0.0728 0.1495,-0.0949 l 6.9447,-2.6689 z"
       id="path34"
       inkscape:connector-curvature="0"
       style="fill:#ffffff;stroke:none" />
  </g>
  <g
     id="hair"
     transform="matrix(1.3163715,0,0,1.3163715,-8.5061281,-9.1987989)" />
  <g
     id="skin"
     transform="matrix(1.3163715,0,0,1.3163715,-8.5061281,-9.1987989)" />
  <g
     id="skin-shadow"
     transform="matrix(1.3163715,0,0,1.3163715,-8.5061281,-9.1987989)" />
  <g
     id="line"
     transform="matrix(1.3163715,0,0,1.3163715,-8.5061281,-9.1987989)">
    <path
       stroke-miterlimit="10"
       d="M 55.5013,37.3974"
       id="path40"
       inkscape:connector-curvature="0"
       style="fill:none;stroke:#000000;stroke-width:2;stroke-linecap:round;stroke-linejoin:round;stroke-miterlimit:10" />
    <path
       stroke-miterlimit="10"
       d="M 16.5878,37.3974"
       id="path42"
       inkscape:connector-curvature="0"
       style="fill:none;stroke:#000000;stroke-width:2;stroke-linecap:round;stroke-linejoin:round;stroke-miterlimit:10" />
    <path
       stroke-miterlimit="10"
       d="M 55.5013,37.3974"
       id="path44"
       inkscape:connector-curvature="0"
       style="fill:none;stroke:#000000;stroke-width:2;stroke-linecap:round;stroke-linejoin:round;stroke-miterlimit:10" />
    <path
       stroke-miterlimit="10"
       d="M 16.5878,37.3974"
       id="path46"
       inkscape:connector-curvature="0"
       style="fill:none;stroke:#000000;stroke-width:2;stroke-linecap:round;stroke-linejoin:round;stroke-miterlimit:10" />
    <polyline
       stroke-miterlimit="10"
       points="17.7408,28.6434 51.0878,15.828 48.7808,9.8251 12.4573,23.7843 14.1948,28.3057"
       id="polyline48"
       style="fill:none;stroke:#000000;stroke-width:2;stroke-linecap:round;stroke-linejoin:round;stroke-miterlimit:10" />
    <path
       stroke-miterlimit="10"
       d="M 55.5013,37.3974"
       id="path50"
       inkscape:connector-curvature="0"
       style="fill:none;stroke:#000000;stroke-width:2;stroke-linecap:round;stroke-linejoin:round;stroke-miterlimit:10" />
    <path
       stroke-miterlimit="10"
       d="M 16.5878,37.3974"
       id="path52"
       inkscape:connector-curvature="0"
       style="fill:none;stroke:#000000;stroke-width:2;stroke-linecap:round;stroke-linejoin:round;stroke-miterlimit:10" />
    <path
       stroke-miterlimit="10"
       d="M 16.5878,37.3973 V 39.0829 54.97 c 0,1.6569 1.3431,3 3,3 h 32.9135 c 1.6569,0 3,-1.3431 3,-3 V 39.0829 37.3974 Z"
       id="path54"
       inkscape:connector-curvature="0"
       style="fill:none;stroke:#000000;stroke-width:2;stroke-linecap:round;stroke-linejoin:round;stroke-miterlimit:10" />
    <polyline
       stroke-miterlimit="10"
       points="18.8967,30.9664 55.5013,30.9664 55.5013,37.3974"
       id="polyline56"
       style="fill:none;stroke:#000000;stroke-width:2;stroke-linecap:round;stroke-linejoin:round;stroke-miterlimit:10" />
    <line
       x1="16.587799"
       x2="16.587799"
       y1="37.049599"
       y2="33.958302"
       stroke-miterlimit="10"
       id="line58"
       style="fill:none;stroke:#000000;stroke-width:2;stroke-linecap:round;stroke-linejoin:round;stroke-miterlimit:10" />
    <polygon
       stroke-miterlimit="10"
       points="30.1119,30.9664 25.4287,30.9664 19.6995,37.3974 24.3826,37.3974 "
       id="polygon60"
       style="fill:none;stroke:#000000;stroke-width:2;stroke-linecap:round;stroke-linejoin:round;stroke-miterlimit:10" />
    <polygon
       stroke-miterlimit="10"
       points="42.1119,30.9664 37.4287,30.9664 31.6995,37.3974 36.3826,37.3974 "
       id="polygon62"
       style="fill:none;stroke:#000000;stroke-width:2;stroke-linecap:round;stroke-linejoin:round;stroke-miterlimit:10" />
    <polygon
       stroke-miterlimit="10"
       points="54.1119,30.9664 49.4287,30.9664 43.6995,37.3974 48.3826,37.3974 "
       id="polygon64"
       style="fill:none;stroke:#000000;stroke-width:2;stroke-linecap:round;stroke-linejoin:round;stroke-miterlimit:10" />
    <circle
       cx="15.7985"
       cy="30.9664"
       r="2.5114999"
       stroke-miterlimit="10"
       id="circle66"
       style="fill:none;stroke:#000000;stroke-width:2;stroke-linecap:round;stroke-linejoin:round;stroke-miterlimit:10" />
    <polyline
       stroke-miterlimit="10"
       points="47.8789,17.084 40.2235,13.137 44.5949,11.4566 50.5971,14.5514"
       id="polyline68"
       style="fill:none;stroke:#000000;stroke-width:2;stroke-linecap:round;stroke-linejoin:round;stroke-miterlimit:10" />
    <polygon
       stroke-miterlimit="10"
       points="28.7464,17.5363 33.119,15.859 40.7714,19.8114 36.399,21.4887 "
       id="polygon70"
       style="fill:none;stroke:#000000;stroke-width:2;stroke-linecap:round;stroke-linejoin:round;stroke-miterlimit:10" />
    <polygon
       stroke-miterlimit="10"
       points="17.7011,21.7132 22.0853,20.0666 29.7098,24.0727 25.3257,25.7192 "
       id="polygon72"
       style="fill:none;stroke:#000000;stroke-width:2;stroke-linecap:round;stroke-linejoin:round;stroke-miterlimit:10" />
  </g>
</svg>
