<?xml version="1.0" encoding="UTF-8" standalone="no"?>
<svg
   xmlns:dc="http://purl.org/dc/elements/1.1/"
   xmlns:cc="http://creativecommons.org/ns#"
   xmlns:rdf="http://www.w3.org/1999/02/22-rdf-syntax-ns#"
   xmlns:svg="http://www.w3.org/2000/svg"
   xmlns="http://www.w3.org/2000/svg"
   xmlns:sodipodi="http://sodipodi.sourceforge.net/DTD/sodipodi-0.dtd"
   xmlns:inkscape="http://www.inkscape.org/namespaces/inkscape"
   id="emoji"
   viewBox="0 0 72 72"
   version="1.1"
   sodipodi:docname="1F3A8.svg"
   inkscape:version="0.92.4 (unknown)">
  <metadata
     id="metadata32">
    <rdf:RDF>
      <cc:Work
         rdf:about="">
        <dc:format>image/svg+xml</dc:format>
        <dc:type
           rdf:resource="http://purl.org/dc/dcmitype/StillImage" />
        <dc:title></dc:title>
      </cc:Work>
    </rdf:RDF>
  </metadata>
  <defs
     id="defs30" />
  <sodipodi:namedview
     pagecolor="#ffffff"
     bordercolor="#666666"
     borderopacity="1"
     objecttolerance="10"
     gridtolerance="10"
     guidetolerance="10"
     inkscape:pageopacity="0"
     inkscape:pageshadow="2"
     inkscape:window-width="1920"
     inkscape:window-height="1016"
     id="namedview28"
     showgrid="false"
     inkscape:zoom="3.2777778"
     inkscape:cx="-56.135593"
     inkscape:cy="34.779661"
     inkscape:window-x="0"
     inkscape:window-y="27"
     inkscape:window-maximized="1"
     inkscape:current-layer="emoji" />
  <path
     style="fill:#a57939;stroke:none;stroke-width:3.20252728;stroke-linecap:round;stroke-linejoin:round;stroke-miterlimit:10"
     inkscape:connector-curvature="0"
     id="path2"
     d="m 67.739105,35.963527 c -0.347488,-1.383525 -0.986865,-3.873871 -2.779903,-5.534102 -2.168325,-1.992277 -5.045525,-1.863148 -5.559807,-1.844701 -1.056363,0.05534 -1.640143,0.295152 -2.779903,0 -0.806172,-0.221364 -2.126626,-0.55341 -2.779904,-1.844701 -0.55598,-1.088374 -0.208492,-1.992277 0,-5.534103 0.166795,-2.785498 0.236292,-4.187471 0,-5.534102 C 53.325306,12.75719 51.76856,10.949383 51.059685,10.137715 49.600236,8.44059 47.7516,7.2599814 44.109926,6.448313 c -2.529712,-0.5718573 -6.60227,-1.1068205 -12.509565,0 -2.988396,0.5534103 -7.589136,1.6048898 -11.119614,3.1728855 -2.460214,1.0699265 -5.198419,2.6010285 -8.33971,5.5341025 -0.0278,0.01845 -0.0556,0.03689 -0.0695,0.05534 -4.7814341,4.13213 -7.4918399,11.437146 -7.2555482,19.018867 1.2648561,40.712548 56.7517282,45.840817 62.9231132,10.957523 0.125096,-1.106821 1.098062,-4.888457 0,-9.223505 z M 38.842009,25.116686 c -2.126626,0 -3.836266,-2.287429 -3.836266,-5.091374 0,-2.822393 1.70964,-5.091375 3.836266,-5.091375 h 3.76677 c 2.112726,0 3.836266,2.268982 3.836266,5.091375 0,1.401972 -0.430885,2.674816 -1.125861,3.597166 -0.694975,0.922351 -1.654042,1.494208 -2.710405,1.494208 z"
     stroke-miterlimit="10" />
  <ellipse
     style="fill:#61b2e4;stroke:none;stroke-width:5.1160078;stroke-miterlimit:10"
     id="circle4"
     stroke-miterlimit="10"
     cy="25.548067"
     cx="17.039461"
     rx="7.6783295"
     ry="7.6696963" />
  <ellipse
     style="fill:#5ce531;fill-opacity:1;stroke:none;stroke-width:5.16657686;stroke-linecap:round;stroke-linejoin:round;stroke-miterlimit:10"
     id="circle6"
     stroke-miterlimit="10"
     cy="42.760548"
     cx="22.616341"
     rx="7.8308721"
     ry="7.6696959" />
  <ellipse
     style="fill:#fcea2b;stroke:none;stroke-width:5.06487608;stroke-miterlimit:10"
     id="circle8"
     stroke-miterlimit="10"
     cy="53.633633"
     cx="36.973488"
     rx="7.6783299"
     ry="7.5171537" />
  <ellipse
     style="fill:#ff7227;fill-opacity:1;stroke:none;stroke-width:5.31837034;stroke-miterlimit:10"
     id="circle10"
     stroke-miterlimit="10"
     cy="45.077068"
     cx="53.466225"
     rx="8.1359568"
     ry="7.822238" />
  <g
     id="hair"
     transform="matrix(0.8311891,0,0,1.1031285,4.5040883,-2.1425436)" />
  <g
     id="skin"
     transform="matrix(0.8311891,0,0,1.1031285,4.5040883,-2.1425436)" />
  <g
     id="skin-shadow"
     transform="matrix(0.8311891,0,0,1.1031285,4.5040883,-2.1425436)" />
  <path
     style="fill:none;stroke:#000000;stroke-width:3.20252728;stroke-linecap:round;stroke-linejoin:round;stroke-miterlimit:10"
     inkscape:connector-curvature="0"
     id="path16"
     d="m 67.739105,35.963527 c -0.347488,-1.383525 -0.986865,-3.873871 -2.779903,-5.534102 -2.168325,-1.992277 -5.045525,-1.863148 -5.559807,-1.844701 -1.056363,0.05534 -1.640143,0.295152 -2.779903,0 -0.806172,-0.221364 -2.126626,-0.55341 -2.779904,-1.844701 -0.55598,-1.088374 -0.208492,-1.992277 0,-5.534103 0.166795,-2.785498 0.236292,-4.187471 0,-5.534102 C 53.325306,12.75719 51.76856,10.949383 51.059685,10.137715 49.600236,8.44059 47.7516,7.2599814 44.109926,6.448313 c -2.529712,-0.5718573 -6.60227,-1.1068205 -12.509565,0 -2.988396,0.5534103 -7.589136,1.6048898 -11.119614,3.1728855 -2.460214,1.0699265 -5.198419,2.6010285 -8.33971,5.5341025 -0.0278,0.01845 -0.0556,0.03689 -0.0695,0.05534 -4.7814341,4.13213 -7.4918399,11.437146 -7.2555482,19.018867 1.2648561,40.712548 56.7517282,45.840817 62.9231132,10.957523 0.125096,-1.106821 1.098062,-4.888457 0,-9.223505 z M 38.842009,25.116686 c -2.126626,0 -3.836266,-2.287429 -3.836266,-5.091374 0,-2.822393 1.70964,-5.091375 3.836266,-5.091375 h 3.76677 c 2.112726,0 3.836266,2.268982 3.836266,5.091375 0,1.401972 -0.430885,2.674816 -1.125861,3.597166 -0.694975,0.922351 -1.654042,1.494208 -2.710405,1.494208 z"
     stroke-miterlimit="10" />
</svg>
