<?xml version="1.0" encoding="UTF-8" standalone="no"?>
<svg
   xmlns:dc="http://purl.org/dc/elements/1.1/"
   xmlns:cc="http://creativecommons.org/ns#"
   xmlns:rdf="http://www.w3.org/1999/02/22-rdf-syntax-ns#"
   xmlns:svg="http://www.w3.org/2000/svg"
   xmlns="http://www.w3.org/2000/svg"
   xmlns:sodipodi="http://sodipodi.sourceforge.net/DTD/sodipodi-0.dtd"
   xmlns:inkscape="http://www.inkscape.org/namespaces/inkscape"
   id="emoji"
   viewBox="0 0 72 72"
   version="1.1"
   sodipodi:docname="1F3A8.svg"
   inkscape:version="0.92.4 (unknown)">
  <metadata
     id="metadata32">
    <rdf:RDF>
      <cc:Work
         rdf:about="">
        <dc:format>image/svg+xml</dc:format>
        <dc:type
           rdf:resource="http://purl.org/dc/dcmitype/StillImage" />
      </cc:Work>
    </rdf:RDF>
  </metadata>
  <defs
     id="defs30" />
  <sodipodi:namedview
     pagecolor="#ffffff"
     bordercolor="#666666"
     borderopacity="1"
     objecttolerance="10"
     gridtolerance="10"
     guidetolerance="10"
     inkscape:pageopacity="0"
     inkscape:pageshadow="2"
     inkscape:window-width="1920"
     inkscape:window-height="1016"
     id="namedview28"
     showgrid="false"
     inkscape:zoom="3.2777778"
     inkscape:cx="4.5762712"
     inkscape:cy="36"
     inkscape:window-x="0"
     inkscape:window-y="27"
     inkscape:window-maximized="1"
     inkscape:current-layer="emoji" />
  <g
     id="color"
     transform="matrix(1.3899517,0,0,1.4182359,-14.268045,-16.35741)">
    <path
       stroke-miterlimit="10"
       d="m 59,36 c -0.25,-0.75 -0.71,-2.1 -2,-3 -1.56,-1.08 -3.63,-1.01 -4,-1 -0.76,0.03 -1.18,0.16 -2,0 -0.58,-0.12 -1.53,-0.3 -2,-1 -0.4,-0.59 -0.15,-1.08 0,-3 0.12,-1.51 0.17,-2.27 0,-3 -0.37,-1.58 -1.49,-2.56 -2,-3 -1.05,-0.92 -2.38,-1.56 -5,-2 -1.82,-0.31 -4.75,-0.6 -9,0 -2.15,0.3 -5.46,0.87 -8,1.72 -1.77,0.58 -3.74,1.41 -6,3 -0.02,0.01 -0.04,0.02 -0.05,0.03 -3.44,2.24 -5.39,6.2 -5.22,10.31 0.91,22.07 40.83,24.85 45.27,5.94 0.09,-0.6 0.79,-2.65 0,-5 z M 38.21,30.12 c -1.53,0 -2.76,-1.24 -2.76,-2.76 0,-1.53 1.23,-2.76 2.76,-2.76 h 2.71 c 1.52,0 2.76,1.23 2.76,2.76 0,0.76 -0.31,1.45 -0.81,1.95 -0.5,0.5 -1.19,0.81 -1.95,0.81 z"
       id="path2"
       inkscape:connector-curvature="0"
       style="fill:#a57939;stroke:none;stroke-width:2;stroke-linecap:round;stroke-linejoin:round;stroke-miterlimit:10" />
    <circle
       cx="20"
       cy="33"
       r="3"
       stroke-miterlimit="10"
       id="circle4"
       style="fill:#61b2e4;stroke:none;stroke-width:2;stroke-miterlimit:10" />
    <circle
       cx="25"
       cy="42"
       r="3"
       stroke-miterlimit="10"
       id="circle6"
       style="fill:#5c9e31;stroke:none;stroke-width:2;stroke-linecap:round;stroke-linejoin:round;stroke-miterlimit:10" />
    <circle
       cx="35"
       cy="45"
       r="3"
       stroke-miterlimit="10"
       id="circle8"
       style="fill:#fcea2b;stroke:none;stroke-width:2;stroke-miterlimit:10" />
    <circle
       cx="45"
       cy="44"
       r="3"
       stroke-miterlimit="10"
       id="circle10"
       style="fill:#d22f27;stroke:none;stroke-width:2;stroke-miterlimit:10" />
  </g>
  <g
     id="hair"
     transform="matrix(0.8311891,0,0,0.84810301,4.5040883,5.4025182)" />
  <g
     id="skin"
     transform="matrix(0.8311891,0,0,0.84810301,4.5040883,5.4025182)" />
  <g
     id="skin-shadow"
     transform="matrix(0.8311891,0,0,0.84810301,4.5040883,5.4025182)" />
  <g
     id="line"
     transform="matrix(1.3899517,0,0,1.4182359,-14.268045,-16.35741)">
    <path
       stroke-miterlimit="10"
       d="m 59,36 c -0.25,-0.75 -0.71,-2.1 -2,-3 -1.56,-1.08 -3.63,-1.01 -4,-1 -0.76,0.03 -1.18,0.16 -2,0 -0.58,-0.12 -1.53,-0.3 -2,-1 -0.4,-0.59 -0.15,-1.08 0,-3 0.12,-1.51 0.17,-2.27 0,-3 -0.37,-1.58 -1.49,-2.56 -2,-3 -1.05,-0.92 -2.38,-1.56 -5,-2 -1.82,-0.31 -4.75,-0.6 -9,0 -2.15,0.3 -5.46,0.87 -8,1.72 -1.77,0.58 -3.74,1.41 -6,3 -0.02,0.01 -0.04,0.02 -0.05,0.03 -3.44,2.24 -5.39,6.2 -5.22,10.31 0.91,22.07 40.83,24.85 45.27,5.94 0.09,-0.6 0.79,-2.65 0,-5 z M 38.21,30.12 c -1.53,0 -2.76,-1.24 -2.76,-2.76 0,-1.53 1.23,-2.76 2.76,-2.76 h 2.71 c 1.52,0 2.76,1.23 2.76,2.76 0,0.76 -0.31,1.45 -0.81,1.95 -0.5,0.5 -1.19,0.81 -1.95,0.81 z"
       id="path16"
       inkscape:connector-curvature="0"
       style="fill:none;stroke:#000000;stroke-width:2;stroke-linecap:round;stroke-linejoin:round;stroke-miterlimit:10" />
    <circle
       cx="20"
       cy="33"
       r="3"
       stroke-miterlimit="10"
       id="circle18"
       style="fill:none;stroke:#000000;stroke-width:2;stroke-miterlimit:10" />
    <circle
       cx="25"
       cy="42"
       r="3"
       stroke-miterlimit="10"
       id="circle20"
       style="fill:none;stroke:#000000;stroke-width:2;stroke-linecap:round;stroke-linejoin:round;stroke-miterlimit:10" />
    <circle
       cx="35"
       cy="45"
       r="3"
       stroke-miterlimit="10"
       id="circle22"
       style="fill:none;stroke:#000000;stroke-width:2;stroke-miterlimit:10" />
    <circle
       cx="45"
       cy="44"
       r="3"
       stroke-miterlimit="10"
       id="circle24"
       style="fill:none;stroke:#000000;stroke-width:2;stroke-miterlimit:10" />
  </g>
</svg>
