<?xml version="1.0" encoding="UTF-8" standalone="no"?>
<svg
   xmlns:dc="http://purl.org/dc/elements/1.1/"
   xmlns:cc="http://creativecommons.org/ns#"
   xmlns:rdf="http://www.w3.org/1999/02/22-rdf-syntax-ns#"
   xmlns:svg="http://www.w3.org/2000/svg"
   xmlns="http://www.w3.org/2000/svg"
   xmlns:sodipodi="http://sodipodi.sourceforge.net/DTD/sodipodi-0.dtd"
   xmlns:inkscape="http://www.inkscape.org/namespaces/inkscape"
   id="emoji"
   viewBox="0 0 72 72"
   version="1.1"
   sodipodi:docname="1F411.svg"
   inkscape:version="0.92.4 (unknown)">
  <metadata
     id="metadata28">
    <rdf:RDF>
      <cc:Work
         rdf:about="">
        <dc:format>image/svg+xml</dc:format>
        <dc:type
           rdf:resource="http://purl.org/dc/dcmitype/StillImage" />
      </cc:Work>
    </rdf:RDF>
  </metadata>
  <defs
     id="defs26" />
  <sodipodi:namedview
     pagecolor="#ffffff"
     bordercolor="#666666"
     borderopacity="1"
     objecttolerance="10"
     gridtolerance="10"
     guidetolerance="10"
     inkscape:pageopacity="0"
     inkscape:pageshadow="2"
     inkscape:window-width="1920"
     inkscape:window-height="1016"
     id="namedview24"
     showgrid="false"
     inkscape:zoom="3.2777778"
     inkscape:cx="36.305085"
     inkscape:cy="36"
     inkscape:window-x="0"
     inkscape:window-y="27"
     inkscape:window-maximized="1"
     inkscape:current-layer="emoji" />
  <g
     id="color"
     transform="matrix(-1,0,0,1,72,-1.220339)">
    <path
       d="m 10.7127,17.125 -3.1478,2.7497 -2.747,3.9321 v 2.5057 l 2.6453,1.0866 4.8374,-0.7267 1.9397,3.1378 0.6091,2.8132 c 0,0 1.0894,2.1144 3.5389,3.4955 0,0 -1.6761,2.0945 1.3867,4.0503 l 0.6461,3.6836 4.1076,0.7031 L 23.0574,59 l 2.4692,2.794 4.118,-0.7253 h 1.7352 l 0.9624,-1.6004 -0.3379,-13.9138 3.9579,0.571 5.2088,0.2623 3.9121,-0.8334 3.153,0.1126 6.4305,-1.2506 3.0833,5 0.0134,10.0995 1.2663,2.1509 2.6031,-1.5836 1.301,-10.2965 -1.26,-3.399 -0.9145,-5.6454 1.7764,-4.0802 -0.4634,-3.4689 0.8615,-4.234 -2.3462,-2.0844 -1.7575,-2.7887 -3.1634,-0.5027 -3.329,-1.75 -4.625,1.0417 -2.9583,-1.0417 -3.5827,0.4566 c 0,0 -3.6047,-0.71 -5.6568,0 0,0 -3.8854,-1.915 -5.5938,-0.54 0,0 -6.0477,0.3598 -6.8636,1.1791 0,0 -1.1343,-1.5616 -3.3426,-1.0498 L 20.421,18.125 c 0,0 -2.0328,-3.625 -5.7935,-1.7833 -2.4767,1.2129 -3.9148,0.7833 -3.9148,0.7833 z"
       id="path2"
       inkscape:connector-curvature="0"
       style="fill:#d0cfce;stroke:none" />
    <path
       d="m 9.7922,18.1866 c 0,0 4.3788,0.4801 6.1288,3.5634 l 2.5891,0.54 1.9109,-2.0517 -0.9167,-4.1634 h -3.75 L 11.944,16.977 Z"
       id="path4"
       inkscape:connector-curvature="0"
       style="fill:#ffffff;stroke:none" />
    <path
       d="m 19.0044,22.29 c 0,0 1.3297,6.8052 -4.3768,8.716 l 0.479,3.494 2.6988,1.0851 -0.3844,2.7482 2.3539,1.8359 v 2.7475 c 0,0 7.0206,1.1253 7.5029,4.6269 0,0 3.4766,-3.6843 4.7266,-1.9889 l 3,0.8334 3.0429,-0.8334 3.1238,0.8334 h 3.5 l 5.5,-0.8334 c 0,0 4.0182,0.7201 4.4956,-1.1379 0,0 3.6773,-3.7112 6.3408,-0.5639 l -0.2482,-3.1102 1.7764,-4.0802 -0.4634,-3.4689 0.8866,-2.7768 -2.6686,-3.0317 -1.4603,-3.299 -3.1634,-0.5027 -3.329,-1.75 -4.0833,0.8333 -3.5,-0.8333 -2.4131,0.777 -2.8369,-0.777 -3.9895,0.4566 -2.5938,-1.1902 -3,0.6502 -3.6667,-1.0833 -3.6666,1.6233 c 0,0 -0.75,-1.8768 -3.5833,0 z"
       id="path6"
       inkscape:connector-curvature="0"
       style="fill:#ffffff;stroke:none" />
  </g>
  <g
     id="hair"
     transform="matrix(-1,0,0,1,72,-1.220339)" />
  <g
     id="skin"
     transform="matrix(-1,0,0,1,72,-1.220339)" />
  <g
     id="skin-shadow"
     transform="matrix(-1,0,0,1,72,-1.220339)" />
  <g
     id="line"
     transform="matrix(-1,0,0,1,72,-1.220339)">
    <path
       stroke-miterlimit="10"
       d="m 23.0574,22.9291 c 0,0 3.6604,-3.4572 6.1926,-0.8662 0,0 4.3429,-1.8549 6.5,0.4371 0,0 3.8325,-1.7757 6.0833,0.4167 0,0 3.5093,-2.5403 6.4167,0.25 0,0 4.25,-2.5 7.4167,0.4167 0,0 4.5833,-1 4.6237,3.8016 0,0 3.7514,2.1213 1.7819,5.8085 0,0 1.761,3.9732 -1.313,7.5491 0,0 -0.0759,4.7775 1.6838,7.043 0.4358,0.5611 0.5798,1.2965 0.4908,2.0014 l -1.301,10.2965 c -0.1235,0.9776 -0.955,1.7106 -1.9403,1.7106 v 0 c -1.2088,0 -2.1281,-1.0856 -1.9291,-2.2779 L 57.75,49.4167 c 0,0 -1.489,-3.3059 -3.0833,-5 0,0 -1.7853,-0.5603 -3.3797,-2.5534"
       id="path12"
       inkscape:connector-curvature="0"
       style="fill:none;stroke:#000000;stroke-width:2;stroke-linecap:round;stroke-linejoin:round;stroke-miterlimit:10" />
    <path
       stroke-miterlimit="10"
       d="m 31.5833,40.1194 c 0.9911,1.8333 0.7589,6.2567 0.7589,6.2567 v 13.0923 c 0,1.0092 -0.8181,1.8274 -1.8274,1.8274 v 0 c -0.9342,0 -1.7179,-0.7046 -1.817,-1.6334 l -0.8573,-8.033 -0.5627,-4.0858 C 25.6834,44.1554 22.6823,43.9561 22.6823,43.9561 19.2122,43.7568 19.7749,40.1693 19.7749,40.1693 16.8675,39.3721 17.8054,35.5852 17.8054,35.5852 14,34.9167 14.6667,30.5 14.6667,30.5 l -2.3661,-3.8276 c -0.967,-0.1323 -1.955,-0.0498 -2.8468,0.3467 -0.4923,0.2189 -1.1527,0.3952 -1.9906,0.38 C 6.1865,27.376 5.4102,26.96 4.9383,26.4601 4.2603,25.742 4.2523,24.6164 4.8179,23.8068 l 2.747,-3.9321 2.5328,-1.9197 c 1.13,-0.8565 2.5091,-1.32 3.927,-1.32 h 0.5971 c 0,0 5.6119,-2.26 5.5628,2.2991 -0.051,4.742 -3.562,3.2397 -3.562,3.2397"
       id="path14"
       inkscape:connector-curvature="0"
       style="fill:none;stroke:#000000;stroke-width:2;stroke-linecap:round;stroke-linejoin:round;stroke-miterlimit:10" />
    <path
       stroke-miterlimit="10"
       d="m 35.3333,45.5546 c 0,0 0.9167,0.8215 2.9492,-0.0979 0.2007,0.0096 4.6708,2.1931 6.3774,-0.1599 0,0 2.2509,1.7544 4.6893,-0.3384"
       id="path16"
       inkscape:connector-curvature="0"
       style="fill:none;stroke:#000000;stroke-width:2;stroke-linecap:round;stroke-linejoin:round;stroke-miterlimit:10" />
    <path
       stroke-miterlimit="10"
       d="m 24.2766,45.5546 c -0.0857,0.8158 0.5325,5.0353 -0.7205,12.9143 -0.1937,1.2178 0.7374,2.3286 1.9705,2.3286"
       id="path18"
       inkscape:connector-curvature="0"
       style="fill:none;stroke:#000000;stroke-width:2;stroke-linecap:round;stroke-linejoin:round;stroke-miterlimit:10" />
    <path
       stroke-miterlimit="10"
       d="m 64.7288,27.3849 c 0.3751,0.3276 3.939,-2.1638 1.313,17.468"
       id="path20"
       inkscape:connector-curvature="0"
       style="fill:none;stroke:#000000;stroke-width:2;stroke-linecap:round;stroke-linejoin:round;stroke-miterlimit:10" />
  </g>
</svg>
