<?xml version="1.0" encoding="UTF-8" standalone="no"?>
<svg
   xmlns:dc="http://purl.org/dc/elements/1.1/"
   xmlns:cc="http://creativecommons.org/ns#"
   xmlns:rdf="http://www.w3.org/1999/02/22-rdf-syntax-ns#"
   xmlns:svg="http://www.w3.org/2000/svg"
   xmlns="http://www.w3.org/2000/svg"
   xmlns:sodipodi="http://sodipodi.sourceforge.net/DTD/sodipodi-0.dtd"
   xmlns:inkscape="http://www.inkscape.org/namespaces/inkscape"
   id="emoji"
   viewBox="0 0 72 72"
   version="1.1"
   sodipodi:docname="21A9.svg"
   inkscape:version="0.92.4 (unknown)">
  <metadata
     id="metadata10">
    <rdf:RDF>
      <cc:Work
         rdf:about="">
        <dc:format>image/svg+xml</dc:format>
        <dc:type
           rdf:resource="http://purl.org/dc/dcmitype/StillImage" />
      </cc:Work>
    </rdf:RDF>
  </metadata>
  <defs
     id="defs8" />
  <sodipodi:namedview
     pagecolor="#ffffff"
     bordercolor="#666666"
     borderopacity="1"
     objecttolerance="10"
     gridtolerance="10"
     guidetolerance="10"
     inkscape:pageopacity="0"
     inkscape:pageshadow="2"
     inkscape:window-width="873"
     inkscape:window-height="480"
     id="namedview6"
     showgrid="false"
     inkscape:zoom="3.2777778"
     inkscape:cx="3.9661017"
     inkscape:cy="36"
     inkscape:window-x="0"
     inkscape:window-y="27"
     inkscape:window-maximized="0"
     inkscape:current-layer="emoji" />
  <g
     id="line"
     style="fill:#ffffff">
    <path
       fill="#000000"
       stroke="none"
       d="M38.655,10.8413H22.7346c-1.1045,0-2,0.8955-2,2v3.4189c0,1.1045,0.8955,2,2,2H38.655 c9.3823,0,14.1396,5.5601,14.1396,16.5264c0,10.5693-4.4155,15.4922-13.8955,15.4922H26.2087l1.7612-1.6172 c0.8135-0.7471,0.8672-2.0122,0.1201-2.8257l-2.0293-2.21c-0.3589-0.3911-0.8584-0.623-1.3887-0.6455 c-0.5239-0.0239-1.0474,0.1665-1.438,0.5254l-9.8013,9.0098c-0.4121,0.3794-0.647,0.9136-0.6465,1.4736 s0.2354,1.0942,0.6479,1.4727l9.8013,8.9922c0.3838,0.3525,0.8682,0.5264,1.3516,0.5264c0.5405,0,1.0791-0.2178,1.4731-0.6465 l2.0293-2.209c0.3589-0.3916,0.5479-0.9082,0.5254-1.4385s-0.2544-1.0293-0.645-1.3877l-1.7432-1.6006h12.6724 c13.5454,0,21.3145-8.3511,21.3145-22.9116C60.2136,19.793,52.1545,10.8413,38.655,10.8413z M38.899,55.6977H21.0921l5.5248,5.0743 l-2.0293,2.209l-9.8013-8.9927l9.8013-9.0097l2.0293,2.21l-5.5427,5.0903H38.899c10.5479,0,15.8958-5.8854,15.8958-17.4921 c0-15.3124-8.7767-18.5264-16.1395-18.5264H22.7344v-3.4189h15.9208c12.4294,0,19.5584,7.9988,19.5584,21.9453 C58.2137,48.2715,51.3542,55.6977,38.899,55.6977z"
       id="path2"
       style="fill:#ffffff" />
  </g>
</svg>
