<?xml version="1.0" encoding="UTF-8" standalone="no"?>
<svg
   xmlns:dc="http://purl.org/dc/elements/1.1/"
   xmlns:cc="http://creativecommons.org/ns#"
   xmlns:rdf="http://www.w3.org/1999/02/22-rdf-syntax-ns#"
   xmlns:svg="http://www.w3.org/2000/svg"
   xmlns="http://www.w3.org/2000/svg"
   xmlns:sodipodi="http://sodipodi.sourceforge.net/DTD/sodipodi-0.dtd"
   xmlns:inkscape="http://www.inkscape.org/namespaces/inkscape"
   id="emoji"
   viewBox="0 0 72 72"
   version="1.1"
   sodipodi:docname="arc.svg"
   inkscape:version="0.92.4 (unknown)">
  <metadata
     id="metadata13">
    <rdf:RDF>
      <cc:Work
         rdf:about="">
        <dc:format>image/svg+xml</dc:format>
        <dc:type
           rdf:resource="http://purl.org/dc/dcmitype/StillImage" />
      </cc:Work>
    </rdf:RDF>
  </metadata>
  <defs
     id="defs11">
    <inkscape:path-effect
       effect="bspline"
       id="path-effect827"
       is_visible="true"
       weight="33.333333"
       steps="2"
       helper_size="0"
       apply_no_weight="true"
       apply_with_weight="true"
       only_selected="false" />
  </defs>
  <sodipodi:namedview
     pagecolor="#ffffff"
     bordercolor="#666666"
     borderopacity="1"
     objecttolerance="10"
     gridtolerance="10"
     guidetolerance="10"
     inkscape:pageopacity="0"
     inkscape:pageshadow="2"
     inkscape:window-width="1920"
     inkscape:window-height="1016"
     id="namedview9"
     showgrid="false"
     inkscape:zoom="3.2777778"
     inkscape:cx="-128.13559"
     inkscape:cy="33.559322"
     inkscape:window-x="0"
     inkscape:window-y="27"
     inkscape:window-maximized="1"
     inkscape:current-layer="emoji" />
  <g
     id="color">
    <circle
       cx="36"
       cy="36.0001"
       r="28"
       fill="#fff"
       id="circle2" />
  </g>
  <g
     id="line"
     style="stroke:#b3b3b3">
    <circle
       cx="36"
       cy="36.0001"
       r="28"
       fill="none"
       stroke="#000"
       stroke-linejoin="round"
       stroke-width="2"
       id="circle5"
       style="stroke:#b3b3b3" />
  </g>
  <circle
     style="opacity:1;fill:#0000ff;fill-opacity:1;stroke:#ffffff;stroke-width:0.40711251;stroke-miterlimit:4;stroke-dasharray:0, 0.40711249, 0.81422498, 1.22133747, 1.62844996, 2.03556246, 2.44267497, 2.84978746, 3.25689995, 3.66401244, 4.07112493, 4.47823742, 4.88534991, 5.2924624, 5.6995749;stroke-dashoffset:37.79527664;stroke-opacity:1"
     id="path822"
     cx="35.559322"
     cy="36.169491"
     r="5.652308" />
  <circle
     style="opacity:1;fill:#0000ff;fill-opacity:1;stroke:#ffffff;stroke-width:0.40711251;stroke-miterlimit:4;stroke-dasharray:0, 0.40711249, 0.81422498, 1.22133747, 1.62844996, 2.03556246, 2.44267497, 2.84978746, 3.25689995, 3.66401244, 4.07112493, 4.47823742, 4.88534991, 5.2924624, 5.6995749;stroke-dashoffset:37.79527664;stroke-opacity:1"
     id="path822-3"
     cx="60.847462"
     cy="21.355932"
     r="5.652308" />
  <path
     style="fill:none;fill-rule:evenodd;stroke:#000000;stroke-width:3.8;stroke-linecap:butt;stroke-linejoin:miter;stroke-opacity:1;stroke-miterlimit:4;stroke-dasharray:none"
     d="M 45.457627,10.067797 C 44.13863,9.7380472 44.656587,9.7627119 43.932203,9.7627119 c -0.101695,0 -0.233175,0.071909 -0.305084,0 -0.07191,-0.071909 0.07191,-0.2331756 0,-0.3050848 -0.09447,-0.094469 -1.430955,0.094469 -1.525424,0 -0.07191,-0.071909 0.07191,-0.2331756 0,-0.3050847 -0.07191,-0.071909 -0.20339,0 -0.305085,0 -0.508474,0 -1.016949,0 -1.525424,0 -0.101694,0 -0.233175,0.071909 -0.305084,0 -0.07191,-0.071909 0.07191,-0.2331756 0,-0.3050848 -0.07191,-0.071909 -0.20339,0 -0.305085,0 -0.101695,0 -0.20339,0 -0.305085,0 -0.813559,0 -1.627118,0 -2.440678,0 -0.610169,0 -1.220339,0 -1.830508,0 -0.101695,0 -0.20339,0 -0.305085,0 -0.101695,0 -0.214126,-0.045479 -0.305085,0 -0.128635,0.064317 -0.176449,0.2407673 -0.305084,0.3050848 -0.244068,0.1220339 -0.671187,-0.1220339 -0.915255,0 -0.128635,0.064317 -0.176449,0.2407672 -0.305084,0.3050847 -0.244068,0.1220339 -0.671187,-0.1220339 -0.915255,0 -0.128635,0.064317 -0.176449,0.2407673 -0.305084,0.3050848 -0.165505,0.082752 -1.136862,-0.083478 -1.220339,0 -0.07191,0.071909 0.07191,0.2331755 0,0.3050851 -0.143819,0.143818 -0.428253,-0.090959 -0.61017,0 -0.128635,0.06432 -0.17645,0.240767 -0.305085,0.305084 -0.09096,0.04548 -0.214126,-0.04548 -0.305084,0 -0.128635,0.06432 -0.17645,0.240768 -0.305085,0.305085 -0.09096,0.04548 -0.214126,-0.04548 -0.305085,0 -1.103448,0.551724 0.493279,0.05845 -0.610169,0.61017 -0.09096,0.04548 -0.208609,-0.03216 -0.305085,0 -0.215728,0.07191 -0.394442,0.233175 -0.61017,0.305084 -0.09648,0.03216 -0.214126,-0.04548 -0.305084,0 -0.128635,0.06432 -0.17645,0.240768 -0.305085,0.305085 -0.09096,0.04548 -0.233176,-0.07191 -0.305085,0 -0.07191,0.07191 0.07191,0.233176 0,0.305085 -0.206896,0.206896 -0.403273,-0.206897 -0.610169,0 -0.07191,0.07191 0.07191,0.233175 0,0.305085 -0.143819,0.143818 -0.466352,-0.143819 -0.61017,0 -0.07191,0.07191 0.07191,0.233175 0,0.305084 -0.206896,0.206897 -0.403273,-0.206896 -0.610169,0 -0.07191,0.07191 0.07191,0.233176 0,0.305085 -0.07191,0.07191 -0.214126,-0.04548 -0.305085,0 -0.128635,0.06432 -0.17645,0.240767 -0.305085,0.305085 -0.09096,0.04548 -0.233175,-0.07191 -0.305085,0 -0.07191,0.07191 0.07191,0.233175 0,0.305085 -0.07191,0.07191 -0.214126,-0.04548 -0.305084,0 -0.128635,0.06432 -0.17645,0.240767 -0.305085,0.305084 -0.09096,0.04548 -0.214126,-0.04548 -0.305085,0 -0.128635,0.06432 -0.17645,0.240768 -0.305085,0.305085 -0.09096,0.04548 -0.214126,-0.04548 -0.305084,0 -0.128635,0.06432 -0.17645,0.240767 -0.305085,0.305085 -0.181917,0.09096 -0.466351,-0.143819 -0.61017,0 -0.07191,0.07191 0.07191,0.233175 0,0.305085 -0.07191,0.07191 -0.214126,-0.04548 -0.305084,0 -0.128635,0.06432 -0.17645,0.240767 -0.305085,0.305084 -0.09096,0.04548 -0.233176,-0.07191 -0.305085,0 -0.07191,0.07191 0.07191,0.233176 0,0.305085 -0.07191,0.07191 -0.233175,-0.07191 -0.305085,0 -0.07191,0.07191 0.07191,0.233176 0,0.305085 -0.07191,0.07191 -0.233175,-0.07191 -0.305084,0 -0.07191,0.07191 0.07191,0.233175 0,0.305085 -0.07191,0.07191 -0.233176,-0.07191 -0.305085,0 -0.07191,0.07191 0.07191,0.233175 0,0.305084 -0.07191,0.07191 -0.214126,-0.04548 -0.305085,0 -0.128635,0.06432 -0.176449,0.240768 -0.305085,0.305085 -0.09096,0.04548 -0.233175,-0.07191 -0.305084,0 -0.07191,0.07191 0.07191,0.233176 0,0.305085 -0.07191,0.07191 -0.214126,-0.04548 -0.305085,0 -0.128635,0.06432 -0.17645,0.240767 -0.305085,0.305085 -0.09096,0.04548 -0.233175,-0.07191 -0.305084,0 -0.07191,0.07191 0.07191,0.233175 0,0.305084 -0.07191,0.07191 -0.233176,-0.07191 -0.305085,0 -0.07191,0.07191 0.07191,0.233176 0,0.305085 -0.07191,0.07191 -0.214126,-0.04548 -0.305085,0 -0.128635,0.06432 -0.20339,0.20339 -0.305085,0.305085 -0.101695,0.101695 -0.240767,0.176449 -0.305084,0.305084 -0.04548,0.09096 0.07191,0.233176 0,0.305085 -0.07191,0.07191 -0.214127,-0.04548 -0.305085,0 -1.28,0.64 0.66983,-0.02983 -0.61017,0.61017 -0.09096,0.04548 -0.214126,-0.04548 -0.305084,0 -0.366102,0.183051 -0.549153,0.732203 -0.915255,0.915254 -0.09096,0.04548 -0.233175,-0.07191 -0.305084,0 -0.07191,0.07191 0.07191,0.233176 0,0.305085 -0.07191,0.07191 -0.214126,-0.04548 -0.305085,0 -1.26969,0.634845 0.326146,-0.02106 -0.305085,0.610169 -0.07191,0.07191 -0.233176,-0.07191 -0.305085,0 -0.07191,0.07191 0.07191,0.233176 0,0.305085 -0.07191,0.07191 -0.233175,-0.07191 -0.305084,0 -0.631232,0.631231 0.964604,-0.02468 -0.305085,0.610169 -0.09096,0.04548 -0.233176,-0.07191 -0.305085,0 -0.07191,0.07191 0.04548,0.214126 0,0.305085 -0.06432,0.128635 -0.20339,0.20339 -0.305085,0.305085 -0.179433,0.179434 -1.1497,1.079061 -1.220339,1.220339 -0.04548,0.09096 0.07191,0.233175 0,0.305085 -0.07191,0.07191 -0.233175,-0.07191 -0.305084,0 -0.07191,0.07191 0.04548,0.214126 0,0.305084 -0.06432,0.128635 -0.2407676,0.17645 -0.3050851,0.305085 -0.090959,0.181918 0.090959,0.428252 0,0.61017 -0.064317,0.128635 -0.2407673,0.176449 -0.3050848,0.305084 -0.045479,0.09096 0.045479,0.214126 0,0.305085 -0.064317,0.128635 -0.2407672,0.17645 -0.3050847,0.305085 -0.045479,0.09096 0.045479,0.214126 0,0.305085 -0.064317,0.128635 -0.2407673,0.176449 -0.3050848,0.305084 -0.045479,0.09096 0.071909,0.233176 0,0.305085 -0.071909,0.07191 -0.2331756,-0.07191 -0.3050847,0 -0.062371,0.06237 0.060482,0.794291 0,0.915254 -0.064317,0.128635 -0.2407673,0.17645 -0.3050848,0.305085 -0.1220339,0.244068 0.1220339,0.671187 0,0.915254 -0.064318,0.128635 -0.2407672,0.17645 -0.3050847,0.305085 -0.096234,0.192469 0.096234,1.332955 0,1.525424 -0.064317,0.128635 -0.2407672,0.17645 -0.3050848,0.305085 -0.04011,0.08022 0,1.060803 0,1.220339 0,0.212198 -0.055164,1.415094 0,1.525423 0.064318,0.128635 0.2407673,0.17645 0.3050848,0.305085 0.092627,0.185254 -0.092627,1.645254 0,1.830508 0.064318,0.128636 0.2407672,0.17645 0.3050847,0.305085 0.045479,0.09096 0,0.20339 0,0.305085 0,0.20339 0,0.40678 0,0.610169 0,0.307237 -0.056239,1.661792 0,1.830509 0.045479,0.136438 0.2407673,0.17645 0.3050848,0.305085 0.095876,0.191752 -0.095876,1.028586 0,1.220339 0.064317,0.128635 0.2407672,0.176449 0.3050847,0.305084 0.097478,0.194956 -0.081854,0.974777 0,1.220339 0.071909,0.215728 0.2331756,0.394442 0.3050848,0.61017 0.064317,0.192952 -0.090959,0.428252 0,0.610169 0.064317,0.128635 0.2407672,0.17645 0.3050847,0.305085 0.099095,0.19819 -0.09676,1.331904 0,1.525424 0.064317,0.128635 0.2407673,0.17645 0.3050848,0.305085 0.060482,0.120963 -0.062371,0.852883 0,0.915254 0.071909,0.07191 0.2331755,-0.07191 0.3050851,0 0.143818,0.143818 -0.090959,0.428252 0,0.610169 0.128635,0.25727 0.481534,0.3529 0.610169,0.61017 0.04548,0.09096 -0.04548,0.214126 0,0.305085 0.06432,0.128635 0.240767,0.176449 0.305085,0.305084 0.04548,0.09096 -0.07191,0.233176 0,0.305085 0.07191,0.07191 0.233175,-0.07191 0.305085,0 0.07191,0.07191 -0.04548,0.214126 0,0.305085 0.06432,0.128635 0.240767,0.17645 0.305084,0.305085 0.04548,0.09096 -0.07191,0.233175 0,0.305084 0.07191,0.07191 0.233176,-0.07191 0.305085,0 0.631231,0.631232 -0.964605,-0.02468 0.305085,0.61017 0.09096,0.04548 0.233175,-0.07191 0.305085,0 0.07191,0.07191 -0.04548,0.214126 0,0.305085 0.06432,0.128635 0.203389,0.203389 0.305084,0.305084 0.101695,0.101695 0.17645,0.240768 0.305085,0.305085 0.09096,0.04548 0.214126,-0.04548 0.305085,0 1.269689,0.634845 -0.326147,-0.02106 0.305085,0.61017 0.07191,0.07191 0.214126,-0.04548 0.305084,0 0.366102,0.18305 0.549153,0.732203 0.915255,0.915254 0.09096,0.04548 0.214126,-0.04548 0.305084,0 0.128635,0.06432 0.20339,0.20339 0.305085,0.305085 0.101695,0.101694 0.240767,0.176449 0.305085,0.305084 0.04548,0.09096 -0.07191,0.233176 0,0.305085 0.631231,0.631231 -0.02468,-0.964605 0.610169,0.305085 0.04548,0.09096 -0.07191,0.233175 0,0.305084 0.07191,0.07191 0.214126,-0.04548 0.305085,0 0.141278,0.07064 1.040905,1.040906 1.220339,1.220339 0.101695,0.101695 0.17645,0.240768 0.305085,0.305085 0.09096,0.04548 0.233175,-0.07191 0.305084,0 0.07191,0.07191 -0.04548,0.214126 0,0.305085 0.634845,1.26969 -0.02106,-0.326146 0.61017,0.305085 0.07191,0.07191 -0.07191,0.233175 0,0.305084 0.07191,0.07191 0.214126,-0.04548 0.305085,0 0.25727,0.128635 0.352899,0.481535 0.610169,0.61017 0.09096,0.04548 0.214126,-0.04548 0.305085,0 0.128635,0.06432 0.17645,0.240767 0.305085,0.305085 0.09096,0.04548 0.233175,-0.07191 0.305084,0 0.07191,0.07191 -0.07191,0.233175 0,0.305084 0.07191,0.07191 0.214127,-0.04548 0.305085,0 0.128635,0.06432 0.17645,0.240768 0.305085,0.305085 0.09096,0.04548 0.233176,-0.07191 0.305085,0 0.07191,0.07191 -0.07191,0.233176 0,0.305085 0.143818,0.143818 0.466351,-0.143818 0.610169,0 0.07191,0.07191 -0.07191,0.233176 0,0.305085 0.07191,0.07191 0.214126,-0.04548 0.305085,0 0.128635,0.06432 0.17645,0.240767 0.305085,0.305084 0.09096,0.04548 0.214126,-0.04548 0.305084,0 0.128635,0.06432 0.17645,0.240768 0.305085,0.305085 0.244068,0.122034 0.671187,-0.122034 0.915254,0 0.128635,0.06432 0.17645,0.240767 0.305085,0.305085 0.09096,0.04548 0.233176,-0.07191 0.305085,0 0.07191,0.07191 -0.07191,0.233175 0,0.305085 0.152542,0.152542 0.762712,-0.152543 0.915254,0 0.07191,0.07191 -0.07191,0.233175 0,0.305084 0.143818,0.143819 0.428252,-0.09096 0.61017,0 0.128635,0.06432 0.176449,0.240768 0.305084,0.305085 0.181918,0.09096 0.466352,-0.143818 0.61017,0 0.07191,0.07191 -0.07191,0.233176 0,0.305085 0.07191,0.07191 0.214126,-0.04548 0.305085,0 0.128635,0.06432 0.176449,0.240767 0.305084,0.305085 0.09096,0.04548 0.233176,-0.07191 0.305085,0 0.07191,0.07191 -0.07191,0.233175 0,0.305084 0.07191,0.07191 0.214126,-0.04548 0.305085,0 0.128635,0.06432 0.17645,0.240768 0.305085,0.305085 0.09096,0.04548 0.214126,-0.04548 0.305084,0 0.128635,0.06432 0.17645,0.240767 0.305085,0.305085 0.181917,0.09096 0.428252,-0.09096 0.61017,0 0.128635,0.06432 0.176449,0.240767 0.305084,0.305085 0.244068,0.122034 0.671187,-0.122034 0.915255,0 0.128635,0.06432 0.176449,0.240767 0.305084,0.305084 0.09096,0.04548 0.20339,0 0.305085,0 0.101695,0 0.20339,0 0.305085,0 0.610169,0 1.220339,0 1.830508,0 0.212199,0 1.415095,0.05517 1.525424,0 0.128635,-0.06432 0.17645,-0.240767 0.305085,-0.305084 0.07888,-0.03944 1.614264,0 1.830508,0 0.101695,0 0.233176,0.07191 0.305085,0 0.07191,-0.07191 -0.07191,-0.233176 0,-0.305085 0.07191,-0.07191 0.20339,0 0.305085,0 0.101695,0 0.305084,-0.101695 0.305084,0 0,0.143818 -0.240767,0.17645 -0.305084,0.305085 -0.04548,0.09096 0,0.203389 0,0.305084 0,0.101695 0,0.20339 0,0.305085"
     id="path831"
     inkscape:connector-curvature="0" />
</svg>
