<?xml version="1.0" encoding="UTF-8" standalone="no"?>
<!-- Generator: Adobe Illustrator 19.0.0, SVG Export Plug-In . SVG Version: 6.00 Build 0)  -->

<svg
   xmlns:dc="http://purl.org/dc/elements/1.1/"
   xmlns:cc="http://creativecommons.org/ns#"
   xmlns:rdf="http://www.w3.org/1999/02/22-rdf-syntax-ns#"
   xmlns:svg="http://www.w3.org/2000/svg"
   xmlns="http://www.w3.org/2000/svg"
   xmlns:sodipodi="http://sodipodi.sourceforge.net/DTD/sodipodi-0.dtd"
   xmlns:inkscape="http://www.inkscape.org/namespaces/inkscape"
   version="1.1"
   id="Layer_1"
   x="0px"
   y="0px"
   viewBox="0 0 512 512"
   style="enable-background:new 0 0 512 512;"
   xml:space="preserve"
   sodipodi:docname="divide-svgrepo-com.svg"
   inkscape:version="0.92.4 (unknown)"><metadata
   id="metadata49"><rdf:RDF><cc:Work
       rdf:about=""><dc:format>image/svg+xml</dc:format><dc:type
         rdf:resource="http://purl.org/dc/dcmitype/StillImage" /></cc:Work></rdf:RDF></metadata><defs
   id="defs47" /><sodipodi:namedview
   pagecolor="#ffffff"
   bordercolor="#666666"
   borderopacity="1"
   objecttolerance="10"
   gridtolerance="10"
   guidetolerance="10"
   inkscape:pageopacity="0"
   inkscape:pageshadow="2"
   inkscape:window-width="1920"
   inkscape:window-height="1016"
   id="namedview45"
   showgrid="false"
   inkscape:zoom="0.4609375"
   inkscape:cx="-528.27119"
   inkscape:cy="256"
   inkscape:window-x="0"
   inkscape:window-y="27"
   inkscape:window-maximized="1"
   inkscape:current-layer="Layer_1" />
<g
   id="g12"
   transform="rotate(90,256,256)">
	<g
   id="g10">
		<g
   id="g8">
			<path
   d="m 256,149.333 c 23.531,0 42.667,-19.136 42.667,-42.667 C 298.667,83.136 279.531,64 256,64 c -23.531,0 -42.667,19.136 -42.667,42.667 0,23.53 19.136,42.666 42.667,42.666 z"
   id="path2"
   inkscape:connector-curvature="0" />
			<path
   d="M 0,0 V 512 H 512 V 0 Z m 256,21.333 c 47.061,0 85.333,38.272 85.333,85.333 0,47.061 -38.272,85.334 -85.333,85.334 -47.061,0 -85.333,-38.272 -85.333,-85.333 0,-47.061 38.272,-85.334 85.333,-85.334 z m 0,469.334 c -47.061,0 -85.333,-38.272 -85.333,-85.333 0,-47.062 38.272,-85.334 85.333,-85.334 47.061,0 85.333,38.272 85.333,85.333 0,47.062 -38.272,85.334 -85.333,85.334 z M 448,277.333 H 64 c -11.797,0 -21.333,-9.557 -21.333,-21.333 0,-11.776 9.536,-21.333 21.333,-21.333 h 384 c 11.797,0 21.333,9.557 21.333,21.333 0,11.776 -9.536,21.333 -21.333,21.333 z"
   id="path4"
   inkscape:connector-curvature="0" />
			<path
   d="m 256,362.667 c -23.531,0 -42.667,19.136 -42.667,42.667 0,23.53 19.136,42.666 42.667,42.666 23.531,0 42.667,-19.136 42.667,-42.667 0,-23.53 -19.136,-42.666 -42.667,-42.666 z"
   id="path6"
   inkscape:connector-curvature="0" />
		</g>
	</g>
</g>
<g
   id="g14"
   transform="rotate(90,256,256)">
</g>
<g
   id="g16"
   transform="rotate(90,256,256)">
</g>
<g
   id="g18"
   transform="rotate(90,256,256)">
</g>
<g
   id="g20"
   transform="rotate(90,256,256)">
</g>
<g
   id="g22"
   transform="rotate(90,256,256)">
</g>
<g
   id="g24"
   transform="rotate(90,256,256)">
</g>
<g
   id="g26"
   transform="rotate(90,256,256)">
</g>
<g
   id="g28"
   transform="rotate(90,256,256)">
</g>
<g
   id="g30"
   transform="rotate(90,256,256)">
</g>
<g
   id="g32"
   transform="rotate(90,256,256)">
</g>
<g
   id="g34"
   transform="rotate(90,256,256)">
</g>
<g
   id="g36"
   transform="rotate(90,256,256)">
</g>
<g
   id="g38"
   transform="rotate(90,256,256)">
</g>
<g
   id="g40"
   transform="rotate(90,256,256)">
</g>
<g
   id="g42"
   transform="rotate(90,256,256)">
</g>
<path
   style="opacity:0.95;fill:#ffffff;fill-rule:evenodd;stroke:#ffffff;stroke-width:41.40000153;stroke-linecap:butt;stroke-linejoin:miter;stroke-miterlimit:4;stroke-dasharray:none;stroke-opacity:1"
   d="M 258.16949,19.525423 256,494.64407"
   id="path840"
   inkscape:connector-curvature="0"
   sodipodi:nodetypes="cc" /></svg>