<?xml version="1.0" encoding="UTF-8" standalone="no"?>
<!-- Generator: Adobe Illustrator 19.0.0, SVG Export Plug-In . SVG Version: 6.00 Build 0)  -->

<svg
   xmlns:dc="http://purl.org/dc/elements/1.1/"
   xmlns:cc="http://creativecommons.org/ns#"
   xmlns:rdf="http://www.w3.org/1999/02/22-rdf-syntax-ns#"
   xmlns:svg="http://www.w3.org/2000/svg"
   xmlns="http://www.w3.org/2000/svg"
   xmlns:sodipodi="http://sodipodi.sourceforge.net/DTD/sodipodi-0.dtd"
   xmlns:inkscape="http://www.inkscape.org/namespaces/inkscape"
   version="1.1"
   id="Layer_1"
   x="0px"
   y="0px"
   viewBox="0 0 512 512"
   style="enable-background:new 0 0 512 512;"
   xml:space="preserve"
   sodipodi:docname="eraser-svgrepo-com.svg"
   inkscape:version="0.92.4 (unknown)"><metadata
   id="metadata47"><rdf:RDF><cc:Work
       rdf:about=""><dc:format>image/svg+xml</dc:format><dc:type
         rdf:resource="http://purl.org/dc/dcmitype/StillImage" /></cc:Work></rdf:RDF></metadata><defs
   id="defs45" /><sodipodi:namedview
   pagecolor="#ffffff"
   bordercolor="#666666"
   borderopacity="1"
   objecttolerance="10"
   gridtolerance="10"
   guidetolerance="10"
   inkscape:pageopacity="0"
   inkscape:pageshadow="2"
   inkscape:window-width="1920"
   inkscape:window-height="1016"
   id="namedview43"
   showgrid="false"
   inkscape:zoom="0.4609375"
   inkscape:cx="32.542373"
   inkscape:cy="256"
   inkscape:window-x="0"
   inkscape:window-y="27"
   inkscape:window-maximized="1"
   inkscape:current-layer="Layer_1" />
<path
   style="fill:#CEE8FA;"
   d="M437.385,244.312c17.404-17.404,17.404-45.622,0-63.025L318.858,62.76  c-17.404-17.404-45.622-17.404-63.025,0L141.636,176.957l181.552,181.552L437.385,244.312z"
   id="path2" />
<g
   id="g10">
	<path
   style="fill:#2D527C;"
   d="M497.588,476.706h-37.455c-7.958,0-14.412-6.454-14.412-14.412s6.454-14.412,14.412-14.412h37.455   c7.958,0,14.412,6.454,14.412,14.412S505.546,476.706,497.588,476.706z"
   id="path4" />
	<path
   style="fill:#2D527C;"
   d="M447.577,254.503c11.139-11.139,17.274-25.95,17.274-41.705c0-15.753-6.135-30.563-17.274-41.703   L329.05,52.568c-11.139-11.139-25.95-17.274-41.703-17.274c-15.755,0-30.564,6.135-41.705,17.274L131.444,166.765   c-2.702,2.704-4.221,6.369-4.221,10.191s1.519,7.487,4.221,10.191l171.361,171.361l-89.372,89.371h-71.915L37.629,343.991   c-5.696-5.694-8.833-13.267-8.833-21.321c0-8.055,3.137-15.628,8.833-21.322l52.245-52.245c5.628-5.628,5.628-14.753,0-20.383   c-5.629-5.626-14.752-5.626-20.383,0l-52.245,52.245c-22.995,22.995-22.995,60.411,0,83.406l108.111,108.113   c0.091,0.091,0.19,0.167,0.282,0.255c0.248,0.235,0.494,0.47,0.758,0.687c0.114,0.094,0.236,0.174,0.353,0.264   c0.257,0.199,0.513,0.398,0.783,0.579c0.094,0.062,0.193,0.114,0.288,0.174c0.303,0.193,0.608,0.383,0.925,0.553   c0.066,0.036,0.137,0.063,0.203,0.098c0.35,0.182,0.706,0.355,1.074,0.507c0.045,0.019,0.091,0.032,0.134,0.049   c0.389,0.157,0.785,0.303,1.19,0.427c0.048,0.014,0.098,0.023,0.146,0.037c0.399,0.117,0.804,0.223,1.218,0.306   c0.114,0.023,0.231,0.033,0.346,0.053c0.347,0.061,0.696,0.121,1.052,0.157c0.476,0.048,0.956,0.072,1.438,0.072h83.858H390.95   c7.958,0,14.412-6.454,14.412-14.412s-6.454-14.412-14.412-14.412H254.199l79.18-79.18L447.577,254.503z M266.025,72.951   c5.694-5.696,13.267-8.833,21.322-8.833c8.053,0,15.627,3.137,21.321,8.833l118.526,118.526c5.696,5.694,8.833,13.267,8.833,21.321   c0,8.055-3.137,15.628-8.833,21.322L323.188,338.128L162.017,176.957L266.025,72.951z"
   id="path6" />
	<path
   style="fill:#2D527C;"
   d="M331.714,436.542c-4.733,0-9.368-2.327-12.125-6.601c-4.315-6.69-2.389-15.608,4.298-19.923   l40.506-26.13c6.689-4.316,15.606-2.391,19.923,4.298c4.315,6.69,2.389,15.608-4.298,19.923l-40.506,26.131   C337.098,435.798,334.39,436.542,331.714,436.542z"
   id="path8" />
</g>
<g
   id="g12">
</g>
<g
   id="g14">
</g>
<g
   id="g16">
</g>
<g
   id="g18">
</g>
<g
   id="g20">
</g>
<g
   id="g22">
</g>
<g
   id="g24">
</g>
<g
   id="g26">
</g>
<g
   id="g28">
</g>
<g
   id="g30">
</g>
<g
   id="g32">
</g>
<g
   id="g34">
</g>
<g
   id="g36">
</g>
<g
   id="g38">
</g>
<g
   id="g40">
</g>
<path
   style="fill:#ffffff;fill-rule:evenodd;stroke:#000000;stroke-width:1px;stroke-linecap:butt;stroke-linejoin:miter;stroke-opacity:1;fill-opacity:1"
   d="M 141.636,176.957 10.847458,316.74576 141.518,447.879 h 71.915 l 109.755,-89.37 z"
   id="path854"
   inkscape:connector-curvature="0" /></svg>