<?xml version="1.0" encoding="UTF-8" standalone="no"?>
<!-- Generator: Adobe Illustrator 19.0.0, SVG Export Plug-In . SVG Version: 6.00 Build 0)  -->

<svg
   xmlns:dc="http://purl.org/dc/elements/1.1/"
   xmlns:cc="http://creativecommons.org/ns#"
   xmlns:rdf="http://www.w3.org/1999/02/22-rdf-syntax-ns#"
   xmlns:svg="http://www.w3.org/2000/svg"
   xmlns="http://www.w3.org/2000/svg"
   xmlns:sodipodi="http://sodipodi.sourceforge.net/DTD/sodipodi-0.dtd"
   xmlns:inkscape="http://www.inkscape.org/namespaces/inkscape"
   version="1.1"
   id="Layer_1"
   x="0px"
   y="0px"
   viewBox="0 0 512 512"
   style="enable-background:new 0 0 512 512;"
   xml:space="preserve"
   sodipodi:docname="eraser-svgrepo-com.svg"
   inkscape:version="0.92.4 (unknown)"><metadata
   id="metadata47"><rdf:RDF><cc:Work
       rdf:about=""><dc:format>image/svg+xml</dc:format><dc:type
         rdf:resource="http://purl.org/dc/dcmitype/StillImage" /></cc:Work></rdf:RDF></metadata><defs
   id="defs45" /><sodipodi:namedview
   pagecolor="#ffffff"
   bordercolor="#666666"
   borderopacity="1"
   objecttolerance="10"
   gridtolerance="10"
   guidetolerance="10"
   inkscape:pageopacity="0"
   inkscape:pageshadow="2"
   inkscape:window-width="1920"
   inkscape:window-height="1016"
   id="namedview43"
   showgrid="false"
   inkscape:zoom="0.4609375"
   inkscape:cx="-439.32203"
   inkscape:cy="247.32203"
   inkscape:window-x="0"
   inkscape:window-y="27"
   inkscape:window-maximized="1"
   inkscape:current-layer="Layer_1" />


<g
   id="g12">
</g>
<g
   id="g14">
</g>
<g
   id="g16">
</g>
<g
   id="g18">
</g>
<g
   id="g20">
</g>
<g
   id="g22">
</g>
<g
   id="g24">
</g>
<g
   id="g26">
</g>
<g
   id="g28">
</g>
<g
   id="g30">
</g>
<g
   id="g32">
</g>
<g
   id="g34">
</g>
<g
   id="g36">
</g>
<g
   id="g38">
</g>
<g
   id="g40">
</g>
<g
   id="g878"
   transform="matrix(0.51834076,0,0,0.51834076,234.30496,249.13527)"><path
     id="path2"
     d="m 437.385,244.312 c 17.404,-17.404 17.404,-45.622 0,-63.025 L 318.858,62.76 c -17.404,-17.404 -45.622,-17.404 -63.025,0 L 141.636,176.957 323.188,358.509 Z"
     style="fill:#cee8fa"
     inkscape:connector-curvature="0" /><g
     id="g10">
	<path
   id="path4"
   d="m 497.588,476.706 h -37.455 c -7.958,0 -14.412,-6.454 -14.412,-14.412 0,-7.958 6.454,-14.412 14.412,-14.412 h 37.455 c 7.958,0 14.412,6.454 14.412,14.412 0,7.958 -6.454,14.412 -14.412,14.412 z"
   style="fill:#2d527c"
   inkscape:connector-curvature="0" />
	<path
   id="path6"
   d="m 447.577,254.503 c 11.139,-11.139 17.274,-25.95 17.274,-41.705 0,-15.753 -6.135,-30.563 -17.274,-41.703 L 329.05,52.568 C 317.911,41.429 303.1,35.294 287.347,35.294 c -15.755,0 -30.564,6.135 -41.705,17.274 L 131.444,166.765 c -2.702,2.704 -4.221,6.369 -4.221,10.191 0,3.822 1.519,7.487 4.221,10.191 l 171.361,171.361 -89.372,89.371 H 141.518 L 37.629,343.991 c -5.696,-5.694 -8.833,-13.267 -8.833,-21.321 0,-8.055 3.137,-15.628 8.833,-21.322 l 52.245,-52.245 c 5.628,-5.628 5.628,-14.753 0,-20.383 -5.629,-5.626 -14.752,-5.626 -20.383,0 l -52.245,52.245 c -22.995,22.995 -22.995,60.411 0,83.406 l 108.111,108.113 c 0.091,0.091 0.19,0.167 0.282,0.255 0.248,0.235 0.494,0.47 0.758,0.687 0.114,0.094 0.236,0.174 0.353,0.264 0.257,0.199 0.513,0.398 0.783,0.579 0.094,0.062 0.193,0.114 0.288,0.174 0.303,0.193 0.608,0.383 0.925,0.553 0.066,0.036 0.137,0.063 0.203,0.098 0.35,0.182 0.706,0.355 1.074,0.507 0.045,0.019 0.091,0.032 0.134,0.049 0.389,0.157 0.785,0.303 1.19,0.427 0.048,0.014 0.098,0.023 0.146,0.037 0.399,0.117 0.804,0.223 1.218,0.306 0.114,0.023 0.231,0.033 0.346,0.053 0.347,0.061 0.696,0.121 1.052,0.157 0.476,0.048 0.956,0.072 1.438,0.072 h 83.858 171.545 c 7.958,0 14.412,-6.454 14.412,-14.412 0,-7.958 -6.454,-14.412 -14.412,-14.412 H 254.199 l 79.18,-79.18 z M 266.025,72.951 c 5.694,-5.696 13.267,-8.833 21.322,-8.833 8.053,0 15.627,3.137 21.321,8.833 l 118.526,118.526 c 5.696,5.694 8.833,13.267 8.833,21.321 0,8.055 -3.137,15.628 -8.833,21.322 L 323.188,338.128 162.017,176.957 Z"
   style="fill:#2d527c"
   inkscape:connector-curvature="0" />
	<path
   id="path8"
   d="m 331.714,436.542 c -4.733,0 -9.368,-2.327 -12.125,-6.601 -4.315,-6.69 -2.389,-15.608 4.298,-19.923 l 40.506,-26.13 c 6.689,-4.316 15.606,-2.391 19.923,4.298 4.315,6.69 2.389,15.608 -4.298,19.923 l -40.506,26.131 c -2.414,1.558 -5.122,2.302 -7.798,2.302 z"
   style="fill:#2d527c"
   inkscape:connector-curvature="0" />
</g><path
     inkscape:connector-curvature="0"
     id="path854"
     d="M 141.636,176.957 10.847458,316.74576 141.518,447.879 h 71.915 l 109.755,-89.37 z"
     style="fill:#ffffff;fill-opacity:1;fill-rule:evenodd;stroke:#000000;stroke-width:1px;stroke-linecap:butt;stroke-linejoin:miter;stroke-opacity:1" /></g><g
   id="grid"
   transform="matrix(7.8700565,0,0,7.8700565,-31.661023,-18.644068)"><path
     style="fill:#b3b3b3"
     inkscape:connector-curvature="0"
     d="M 68,4 V 68 H 4 V 4 H 68 M 72,0 H 0 v 72 h 72 z"
     id="path2-3" /><path
     style="fill:none;stroke:#00a5ff;stroke-width:0.1;stroke-miterlimit:10"
     inkscape:connector-curvature="0"
     stroke-miterlimit="10"
     d="M 12.923,10.9583 H 59.0769 A 1.9231,1.9231 0 0 1 61,12.8814 v 46.1538 a 1.9231,1.9231 0 0 1 -1.9231,1.9231 H 12.9231 A 1.9231,1.9231 0 0 1 11,59.0352 V 12.8813 a 1.923,1.923 0 0 1 1.923,-1.923 z"
     id="path4-6" /><rect
     style="fill:none;stroke:#00a5ff;stroke-width:0.1;stroke-miterlimit:10"
     x="16"
     y="4"
     rx="2.2537"
     width="40"
     height="64"
     stroke-miterlimit="10"
     id="rect6" /><rect
     style="fill:none;stroke:#00a5ff;stroke-width:0.1;stroke-miterlimit:10"
     x="16"
     y="4"
     rx="2.2537"
     width="40"
     height="64"
     transform="rotate(90,36,36)"
     stroke-miterlimit="10"
     id="rect8" /><circle
     style="fill:none;stroke:#00a5ff;stroke-width:0.1;stroke-miterlimit:10"
     cx="36"
     cy="36"
     r="29"
     stroke-miterlimit="10"
     id="circle10" /></g><g
   id="color"
   transform="matrix(7.8700565,0,0,7.8700565,-31.661023,-18.644068)"><polygon
     style="fill:#3f3f3f;stroke:none"
     points="14.5943,53.154 18.2544,56.814 12.6242,59.0928 "
     id="polygon13" /><polyline
     style="fill:#f4aa41;stroke:none"
     points="18.0381,41.8761 36.8684,23.0457 48.1813,34.3586 29.5108,53.0291"
     id="polyline15" /><polyline
     style="fill:#a57939;stroke:none"
     points="14.4132,52.5663 17.9281,43.3946 27.8278,53.2939 18.6558,56.809"
     id="polyline17" /><polyline
     style="fill:#ea5a47;stroke:none"
     points="42.9209,16.9933 50.4228,9.4913 61.7357,20.8042 54.2975,28.2424"
     id="polyline19" /><polyline
     style="fill:#9b9b9a;stroke:none"
     points="35.6498,24.2643 43.3318,16.5823 54.6447,27.8952 47.0278,35.512"
     id="polyline21" /></g><g
   id="line"
   transform="matrix(7.8700565,0,0,7.8700565,-31.661023,-18.644068)"><polygon
     style="fill:none;stroke:#000000;stroke-width:2;stroke-linecap:round;stroke-linejoin:round;stroke-miterlimit:10"
     stroke-miterlimit="10"
     points="43.9212,17.4015 17.9281,43.3946 14.3904,52.6032 18.6304,56.8203 27.8278,53.2939 53.8207,27.301 "
     id="polygon27" /><polyline
     style="fill:none;stroke:#000000;stroke-width:2;stroke-linecap:round;stroke-linejoin:round;stroke-miterlimit:10"
     stroke-miterlimit="10"
     points="47.3354,13.9873 50.8388,10.4839 60.7383,20.3834 57.2645,23.8572"
     id="polyline29" /><line
     style="fill:none;stroke:#000000;stroke-width:2;stroke-linecap:round;stroke-linejoin:round;stroke-miterlimit:10"
     x1="18.5562"
     x2="28.4557"
     y1="42.766499"
     y2="52.665901"
     stroke-miterlimit="10"
     id="line31" /><polyline
     style="fill:none;stroke:#000000;stroke-width:2;stroke-linecap:round;stroke-linejoin:round;stroke-miterlimit:10"
     stroke-miterlimit="10"
     points="14.3979,52.5817 11.9073,59.3148 18.6558,56.809"
     id="polyline33" /><line
     style="fill:none;stroke:#000000;stroke-width:2;stroke-linecap:round;stroke-linejoin:round;stroke-miterlimit:10"
     x1="36.909901"
     x2="46.422501"
     y1="25.007299"
     y2="34.519901"
     stroke-miterlimit="10"
     id="line35" /></g></svg>