<?xml version="1.0" encoding="UTF-8" standalone="no"?>
<svg
   xmlns:dc="http://purl.org/dc/elements/1.1/"
   xmlns:cc="http://creativecommons.org/ns#"
   xmlns:rdf="http://www.w3.org/1999/02/22-rdf-syntax-ns#"
   xmlns:svg="http://www.w3.org/2000/svg"
   xmlns="http://www.w3.org/2000/svg"
   xmlns:sodipodi="http://sodipodi.sourceforge.net/DTD/sodipodi-0.dtd"
   xmlns:inkscape="http://www.inkscape.org/namespaces/inkscape"
   id="emoji"
   viewBox="0 0 72 72"
   version="1.1"
   sodipodi:docname="erase.svg"
   inkscape:version="0.92.4 (unknown)">
  <metadata
     id="metadata43">
    <rdf:RDF>
      <cc:Work
         rdf:about="">
        <dc:format>image/svg+xml</dc:format>
        <dc:type
           rdf:resource="http://purl.org/dc/dcmitype/StillImage" />
      </cc:Work>
    </rdf:RDF>
  </metadata>
  <defs
     id="defs41" />
  <sodipodi:namedview
     pagecolor="#ffffff"
     bordercolor="#666666"
     borderopacity="1"
     objecttolerance="10"
     gridtolerance="10"
     guidetolerance="10"
     inkscape:pageopacity="0"
     inkscape:pageshadow="2"
     inkscape:window-width="960"
     inkscape:window-height="1016"
     id="namedview39"
     showgrid="false"
     inkscape:zoom="2.3177389"
     inkscape:cx="-13.39312"
     inkscape:cy="-18.372309"
     inkscape:window-x="960"
     inkscape:window-y="27"
     inkscape:window-maximized="0"
     inkscape:current-layer="emoji" />
  <g
     id="g943"
     transform="translate(57.315023,-36.374516)">
    <path
       id="path2-3"
       d="M 0,72 C 2.09373,69.90627 2.09373,66.51161 0,64.418 L -14.25897,50.15903 c -2.09373,-2.09373 -5.4884,-2.09373 -7.582,0 l -13.73807,13.73806 21.84097,21.84098 z"
       style="fill:#cee8fa;stroke-width:0.12030147"
       inkscape:connector-curvature="0" />
    <g
       id="g10"
       transform="matrix(0.12030147,0,0,0.12030147,-52.61806,42.60891)">
      <path
         id="path4-6"
         d="m 497.588,476.706 h -37.455 c -7.958,0 -14.412,-6.454 -14.412,-14.412 0,-7.958 6.454,-14.412 14.412,-14.412 h 37.455 c 7.958,0 14.412,6.454 14.412,14.412 0,7.958 -6.454,14.412 -14.412,14.412 z"
         style="fill:#2d527c"
         inkscape:connector-curvature="0" />
      <path
         id="path6"
         d="m 447.577,254.503 c 11.139,-11.139 17.274,-25.95 17.274,-41.705 0,-15.753 -6.135,-30.563 -17.274,-41.703 L 329.05,52.568 C 317.911,41.429 303.1,35.294 287.347,35.294 c -15.755,0 -30.564,6.135 -41.705,17.274 L 131.444,166.765 c -2.702,2.704 -4.221,6.369 -4.221,10.191 0,3.822 1.519,7.487 4.221,10.191 l 171.361,171.361 -89.372,89.371 H 141.518 L 37.629,343.991 c -5.696,-5.694 -8.833,-13.267 -8.833,-21.321 0,-8.055 3.137,-15.628 8.833,-21.322 l 52.245,-52.245 c 5.628,-5.628 5.628,-14.753 0,-20.383 -5.629,-5.626 -14.752,-5.626 -20.383,0 l -52.245,52.245 c -22.995,22.995 -22.995,60.411 0,83.406 l 108.111,108.113 c 0.091,0.091 0.19,0.167 0.282,0.255 0.248,0.235 0.494,0.47 0.758,0.687 0.114,0.094 0.236,0.174 0.353,0.264 0.257,0.199 0.513,0.398 0.783,0.579 0.094,0.062 0.193,0.114 0.288,0.174 0.303,0.193 0.608,0.383 0.925,0.553 0.066,0.036 0.137,0.063 0.203,0.098 0.35,0.182 0.706,0.355 1.074,0.507 0.045,0.019 0.091,0.032 0.134,0.049 0.389,0.157 0.785,0.303 1.19,0.427 0.048,0.014 0.098,0.023 0.146,0.037 0.399,0.117 0.804,0.223 1.218,0.306 0.114,0.023 0.231,0.033 0.346,0.053 0.347,0.061 0.696,0.121 1.052,0.157 0.476,0.048 0.956,0.072 1.438,0.072 h 83.858 171.545 c 7.958,0 14.412,-6.454 14.412,-14.412 0,-7.958 -6.454,-14.412 -14.412,-14.412 H 254.199 l 79.18,-79.18 z M 266.025,72.951 c 5.694,-5.696 13.267,-8.833 21.322,-8.833 8.053,0 15.627,3.137 21.321,8.833 l 118.526,118.526 c 5.696,5.694 8.833,13.267 8.833,21.321 0,8.055 -3.137,15.628 -8.833,21.322 L 323.188,338.128 162.017,176.957 Z"
         style="fill:#2d527c"
         inkscape:connector-curvature="0" />
      <path
         id="path8"
         d="m 331.714,436.542 c -4.733,0 -9.368,-2.327 -12.125,-6.601 -4.315,-6.69 -2.389,-15.608 4.298,-19.923 l 40.506,-26.13 c 6.689,-4.316 15.606,-2.391 19.923,4.298 4.315,6.69 2.389,15.608 -4.298,19.923 l -40.506,26.131 c -2.414,1.558 -5.122,2.302 -7.798,2.302 z"
         style="fill:#2d527c"
         inkscape:connector-curvature="0" />
    </g>
    <g
       id="g12"
       transform="matrix(0.12030147,0,0,0.12030147,-52.61806,42.60891)" />
    <g
       id="g14"
       transform="matrix(0.12030147,0,0,0.12030147,-52.61806,42.60891)" />
    <g
       id="g16"
       transform="matrix(0.12030147,0,0,0.12030147,-52.61806,42.60891)" />
    <g
       id="g18"
       transform="matrix(0.12030147,0,0,0.12030147,-52.61806,42.60891)" />
    <g
       id="g20"
       transform="matrix(0.12030147,0,0,0.12030147,-52.61806,42.60891)" />
    <g
       id="g22"
       transform="matrix(0.12030147,0,0,0.12030147,-52.61806,42.60891)" />
    <g
       id="g24"
       transform="matrix(0.12030147,0,0,0.12030147,-52.61806,42.60891)" />
    <g
       id="g26"
       transform="matrix(0.12030147,0,0,0.12030147,-52.61806,42.60891)" />
    <g
       id="g28"
       transform="matrix(0.12030147,0,0,0.12030147,-52.61806,42.60891)" />
    <g
       id="g30"
       transform="matrix(0.12030147,0,0,0.12030147,-52.61806,42.60891)" />
    <g
       id="g32"
       transform="matrix(0.12030147,0,0,0.12030147,-52.61806,42.60891)" />
    <g
       id="g34"
       transform="matrix(0.12030147,0,0,0.12030147,-52.61806,42.60891)" />
    <g
       id="g36"
       transform="matrix(0.12030147,0,0,0.12030147,-52.61806,42.60891)" />
    <g
       id="g38"
       transform="matrix(0.12030147,0,0,0.12030147,-52.61806,42.60891)" />
    <g
       id="g40"
       transform="matrix(0.12030147,0,0,0.12030147,-52.61806,42.60891)" />
    <path
       inkscape:connector-curvature="0"
       id="path854"
       d="m -35.57904,63.89709 -15.73405,16.8168 15.71985,15.77552 h 8.65148 l 13.20369,-10.75134 z"
       style="fill:#ffffff;fill-opacity:1;fill-rule:evenodd;stroke:#000000;stroke-width:0.12030147px;stroke-linecap:butt;stroke-linejoin:miter;stroke-opacity:1" />
  </g>
  <g
     id="hair" />
  <g
     id="skin" />
  <g
     id="skin-shadow" />
</svg>
