<?xml version="1.0" encoding="UTF-8" standalone="no"?>
<svg
   id="emoji"
   viewBox="0 0 72 72"
   version="1.1"
   sodipodi:docname="magnetforeground.svg"
   inkscape:version="1.1.2 (0a00cf5339, 2022-02-04)"
   xmlns:inkscape="http://www.inkscape.org/namespaces/inkscape"
   xmlns:sodipodi="http://sodipodi.sourceforge.net/DTD/sodipodi-0.dtd"
   xmlns="http://www.w3.org/2000/svg"
   xmlns:svg="http://www.w3.org/2000/svg"
   xmlns:rdf="http://www.w3.org/1999/02/22-rdf-syntax-ns#"
   xmlns:cc="http://creativecommons.org/ns#"
   xmlns:dc="http://purl.org/dc/elements/1.1/">
  <metadata
     id="metadata10">
    <rdf:RDF>
      <cc:Work
         rdf:about="">
        <dc:format>image/svg+xml</dc:format>
        <dc:type
           rdf:resource="http://purl.org/dc/dcmitype/StillImage" />
      </cc:Work>
    </rdf:RDF>
  </metadata>
  <defs
     id="defs8">
    <marker
       style="overflow:visible"
       id="TriangleOutS"
       refX="0.0"
       refY="0.0"
       orient="auto"
       inkscape:stockid="TriangleOutS"
       inkscape:isstock="true">
      <path
         transform="scale(0.2)"
         style="fill-rule:evenodd;fill:context-stroke;stroke:context-stroke;stroke-width:1.0pt"
         d="M 5.77,0.0 L -2.88,5.0 L -2.88,-5.0 L 5.77,0.0 z "
         id="path2848" />
    </marker>
    <marker
       style="overflow:visible;"
       id="marker3677"
       refX="0.0"
       refY="0.0"
       orient="auto"
       inkscape:stockid="Arrow2Send"
       inkscape:isstock="true">
      <path
         transform="scale(0.3) rotate(180) translate(-2.3,0)"
         d="M 8.7185878,4.0337352 L -2.2072895,0.016013256 L 8.7185884,-4.0017078 C 6.9730900,-1.6296469 6.9831476,1.6157441 8.7185878,4.0337352 z "
         style="stroke:context-stroke;fill-rule:evenodd;fill:context-stroke;stroke-width:0.62500000;stroke-linejoin:round;"
         id="path3675" />
    </marker>
    <marker
       style="overflow:visible;"
       id="Arrow2Send"
       refX="0.0"
       refY="0.0"
       orient="auto"
       inkscape:stockid="Arrow2Send"
       inkscape:isstock="true">
      <path
         transform="scale(0.3) rotate(180) translate(-2.3,0)"
         d="M 8.7185878,4.0337352 L -2.2072895,0.016013256 L 8.7185884,-4.0017078 C 6.9730900,-1.6296469 6.9831476,1.6157441 8.7185878,4.0337352 z "
         style="stroke:context-stroke;fill-rule:evenodd;fill:context-stroke;stroke-width:0.62500000;stroke-linejoin:round;"
         id="path2733" />
    </marker>
    <marker
       style="overflow:visible"
       id="Arrow1Sstart"
       refX="0.0"
       refY="0.0"
       orient="auto"
       inkscape:stockid="Arrow1Sstart"
       inkscape:isstock="true">
      <path
         transform="scale(0.2) translate(6,0)"
         style="fill-rule:evenodd;fill:context-stroke;stroke:context-stroke;stroke-width:1.0pt"
         d="M 0.0,0.0 L 5.0,-5.0 L -12.5,0.0 L 5.0,5.0 L 0.0,0.0 z "
         id="path2712" />
    </marker>
    <marker
       style="overflow:visible;"
       id="Arrow2Mend"
       refX="0.0"
       refY="0.0"
       orient="auto"
       inkscape:stockid="Arrow2Mend"
       inkscape:isstock="true">
      <path
         transform="scale(0.6) rotate(180) translate(0,0)"
         d="M 8.7185878,4.0337352 L -2.2072895,0.016013256 L 8.7185884,-4.0017078 C 6.9730900,-1.6296469 6.9831476,1.6157441 8.7185878,4.0337352 z "
         style="stroke:context-stroke;fill-rule:evenodd;fill:context-stroke;stroke-width:0.62500000;stroke-linejoin:round;"
         id="path2727" />
    </marker>
    <marker
       style="overflow:visible;"
       id="Arrow2Lend"
       refX="0.0"
       refY="0.0"
       orient="auto"
       inkscape:stockid="Arrow2Lend"
       inkscape:isstock="true">
      <path
         transform="scale(1.1) rotate(180) translate(1,0)"
         d="M 8.7185878,4.0337352 L -2.2072895,0.016013256 L 8.7185884,-4.0017078 C 6.9730900,-1.6296469 6.9831476,1.6157441 8.7185878,4.0337352 z "
         style="stroke:context-stroke;fill-rule:evenodd;fill:context-stroke;stroke-width:0.62500000;stroke-linejoin:round;"
         id="path2721" />
    </marker>
    <marker
       style="overflow:visible;"
       id="Arrow1Lend"
       refX="0.0"
       refY="0.0"
       orient="auto"
       inkscape:stockid="Arrow1Lend"
       inkscape:isstock="true">
      <path
         transform="scale(0.8) rotate(180) translate(12.5,0)"
         style="fill-rule:evenodd;fill:context-stroke;stroke:context-stroke;stroke-width:1.0pt;"
         d="M 0.0,0.0 L 5.0,-5.0 L -12.5,0.0 L 5.0,5.0 L 0.0,0.0 z "
         id="path2703" />
    </marker>
  </defs>
  <sodipodi:namedview
     pagecolor="#ffffff"
     bordercolor="#666666"
     borderopacity="1"
     objecttolerance="10"
     gridtolerance="10"
     guidetolerance="10"
     inkscape:pageopacity="0"
     inkscape:pageshadow="2"
     inkscape:window-width="1920"
     inkscape:window-height="1011"
     id="namedview6"
     showgrid="false"
     inkscape:zoom="9.2709556"
     inkscape:cx="26.804141"
     inkscape:cy="29.123211"
     inkscape:window-x="0"
     inkscape:window-y="32"
     inkscape:window-maximized="1"
     inkscape:current-layer="emoji"
     inkscape:pagecheckerboard="0" />
  <rect
     style="fill:#000000;stroke:#b3b3b3;stroke-width:2.6365"
     id="rect929"
     width="37.72662"
     height="60.456963"
     x="1.6748482"
     y="4.565937" />
  <g
     id="hair"
     transform="matrix(0.48920839,0,0,0.48920839,-1.6341654,26.628074)" />
  <g
     id="skin"
     transform="matrix(0.48920839,0,0,0.48920839,-1.6341654,26.628074)" />
  <g
     id="skin-shadow"
     transform="matrix(0.48920839,0,0,0.48920839,-1.6341654,26.628074)" />
  <g
     id="g923"
     transform="translate(6.9104096,-18.781929)"
     style="opacity:0.74222005">
    <g
       id="color"
       transform="matrix(0.40680604,0,0,0.40680604,1.7310764,29.359253)">
      <path
         fill="#f4aa41"
         d="M 58.3627,49.2828 C 54.8131,58.2779 45.9001,64.0933 35.4655,64.0933 26.47,64.0933 16.4668,58.4655 12.9172,49.4704 L 12.7927,49.1619 C 11.6665,46.3404 11.8616,42.887 11.8616,39.6582 l 3.6179,-31.9254 10.0781,9.9318 c 2.8836,-1.231 6.055,-1.9129 9.3833,-1.9129 h 1.0493 c 3.3283,0 6.4997,0.6818 9.3833,1.9129 L 56.4516,6.7328 60.1242,40.1561 c 0,3.2288 -0.6199,6.3115 -1.7471,9.1329"
         id="path2-3" />
      <path
         fill="#e27022"
         d="m 35.4655,64.0933 c 10.4671,0.3379 20.0822,-5.782 23.6318,-14.7771 l 0.1094,-0.2279 c 1.1262,-2.8215 0.9317,-6.8043 0.9317,-10.0331 L 56.4516,6.7328"
         id="path4" />
      <ellipse
         cx="36"
         cy="51.719398"
         rx="6.4517999"
         ry="7.7514"
         fill="#ea5a47"
         id="ellipse6" />
      <ellipse
         cx="24.455799"
         cy="34.194"
         rx="7.7512999"
         ry="6.4517002"
         transform="matrix(0.3339,-0.9426,0.9426,0.3339,-15.9415,45.8287)"
         fill="#ffffff"
         id="ellipse8" />
      <ellipse
         cx="46.8396"
         cy="34.194801"
         rx="6.4517002"
         ry="7.7512999"
         transform="matrix(0.9426,-0.3339,0.3339,0.9426,-8.7295,17.6024)"
         fill="#ffffff"
         id="ellipse10" />
      <path
         fill="#f4aa41"
         d="m 15.2952,65 h 9.0343 c 0,0 1.3738,-13.3688 0,-15.8101 -0.9984,-1.7742 -2.5479,-5.2709 -6.8527,-5.1379 -1.5576,0.0481 -6.0111,1.347 -4.7097,5.2514 1.8131,5.4394 3.4222,4.5051 4.2929,6.1777 C 18.2042,57.6789 15.2952,65 15.2952,65 Z"
         id="path12" />
      <path
         fill="#f4aa41"
         d="m 56.3242,65 h -9.0343 c 0,0 -1.3738,-13.3688 0,-15.8101 0.9984,-1.7742 2.5479,-5.2709 6.8527,-5.1379 1.5577,0.0481 6.0111,1.347 4.7097,5.2514 -1.8131,5.4394 -3.4222,4.5051 -4.2929,6.1777 C 53.4152,57.6789 56.3242,65 56.3242,65 Z"
         id="path14" />
    </g>
    <g
       id="line"
       transform="matrix(0.40680604,0,0,0.40680604,1.7310764,29.359253)">
      <line
         x1="61.650002"
         x2="57.610001"
         y1="54.449799"
         y2="52.199799"
         fill="none"
         stroke="#000000"
         stroke-linecap="round"
         stroke-linejoin="round"
         stroke-miterlimit="10"
         stroke-width="2"
         id="line20" />
      <line
         x1="57.549999"
         x2="54.34"
         y1="59.5798"
         y2="57.799801"
         fill="none"
         stroke="#000000"
         stroke-linecap="round"
         stroke-linejoin="round"
         stroke-miterlimit="10"
         stroke-width="2"
         id="line22" />
      <path
         fill="none"
         stroke="#000000"
         stroke-linecap="round"
         stroke-linejoin="round"
         stroke-miterlimit="10"
         stroke-width="2"
         d="m 12.92,46.4798 c 0,0 -0.01,-0.01 0,-0.01 -0.67,-2.19 -1.03,-4.5 -1.03,-6.9 l 3.59,-32.32 10.83,10.57 c 2.82,-1.19 5.92,-1.85 9.18,-1.85 h 1.02 c 3.26,0 6.36,0.66 9.18,1.85 l 10.83,-10.57 3.59,32.32 c 0,2.59 -0.41,5.07 -1.19,7.4"
         id="path24" />
      <path
         fill="none"
         stroke="#000000"
         stroke-linecap="round"
         stroke-linejoin="round"
         stroke-miterlimit="10"
         stroke-width="2"
         d="m 24.7,60.5598 c 3.23,1.67 6.9,2.61 10.79,2.61 h 1.02 c 3.75,0 7.28,-0.87 10.43,-2.42"
         id="path26" />
      <line
         x1="14.1"
         x2="10.35"
         y1="52.359798"
         y2="54.449799"
         fill="none"
         stroke="#000000"
         stroke-linecap="round"
         stroke-linejoin="round"
         stroke-miterlimit="10"
         stroke-width="2"
         id="line28" />
      <line
         x1="17.25"
         x2="14.45"
         y1="58.019798"
         y2="59.5798"
         fill="none"
         stroke="#000000"
         stroke-linecap="round"
         stroke-linejoin="round"
         stroke-miterlimit="10"
         stroke-width="2"
         id="line30" />
      <ellipse
         cx="36"
         cy="51.719398"
         rx="6.4517999"
         ry="7.7514"
         fill="none"
         stroke="#000000"
         stroke-linecap="round"
         stroke-linejoin="round"
         stroke-miterlimit="10"
         stroke-width="2"
         id="ellipse32" />
      <ellipse
         cx="24.455799"
         cy="34.194"
         rx="7.7512999"
         ry="6.4517002"
         transform="matrix(0.3339,-0.9426,0.9426,0.3339,-15.9415,45.8287)"
         fill="none"
         stroke="#000000"
         stroke-linecap="round"
         stroke-linejoin="round"
         stroke-miterlimit="10"
         stroke-width="2"
         id="ellipse34" />
      <ellipse
         cx="46.8396"
         cy="34.194801"
         rx="6.4517002"
         ry="7.7512999"
         transform="matrix(0.9426,-0.3339,0.3339,0.9426,-8.7295,17.6024)"
         fill="none"
         stroke="#000000"
         stroke-linecap="round"
         stroke-linejoin="round"
         stroke-miterlimit="10"
         stroke-width="2"
         id="ellipse36" />
      <path
         fill="none"
         stroke="#000000"
         stroke-linecap="round"
         stroke-linejoin="round"
         stroke-miterlimit="10"
         stroke-width="2"
         d="m 15.2952,65 h 9.0343 c 0,0 1.3738,-13.3688 0,-15.8101 -0.9984,-1.7742 -2.5479,-5.2709 -6.8527,-5.1379 -1.5576,0.0481 -6.0111,1.347 -4.7097,5.2514 1.8131,5.4394 3.4222,4.5051 4.2929,6.1777 C 18.2042,57.6789 15.2952,65 15.2952,65 Z"
         id="path38" />
      <path
         fill="none"
         stroke="#000000"
         stroke-linecap="round"
         stroke-linejoin="round"
         stroke-miterlimit="10"
         stroke-width="2"
         d="m 56.3242,65 h -9.0343 c 0,0 -1.3738,-13.3688 0,-15.8101 0.9984,-1.7742 2.5479,-5.2709 6.8527,-5.1379 1.5577,0.0481 6.0111,1.347 4.7097,5.2514 -1.8131,5.4394 -3.4222,4.5051 -4.2929,6.1777 C 53.4152,57.6789 56.3242,65 56.3242,65 Z"
         id="path40" />
    </g>
  </g>
  <path
     style="fill:none;stroke:#ff6600;stroke-width:7.20386;stroke-linecap:butt;stroke-linejoin:miter;stroke-miterlimit:3.9;stroke-dasharray:none;stroke-opacity:1"
     d="M 27.461283,47.90095 C 59.413489,55.995386 70.856164,25.265897 35.640498,26.348891"
     id="path2105"
     sodipodi:nodetypes="cc" />
  <path
     style="fill:#ff6600;stroke:#ff6600;stroke-width:1px;stroke-linecap:butt;stroke-linejoin:miter;stroke-opacity:1"
     d="M 29.258677,36.1353 13.22725,46.765862 28.488898,55.466372 Z"
     id="path4030" />
</svg>
