<?xml version="1.0" encoding="UTF-8" standalone="no"?>
<!-- Created with Inkscape (http://www.inkscape.org/) -->

<svg
   xmlns:dc="http://purl.org/dc/elements/1.1/"
   xmlns:cc="http://creativecommons.org/ns#"
   xmlns:rdf="http://www.w3.org/1999/02/22-rdf-syntax-ns#"
   xmlns:svg="http://www.w3.org/2000/svg"
   xmlns="http://www.w3.org/2000/svg"
   xmlns:sodipodi="http://sodipodi.sourceforge.net/DTD/sodipodi-0.dtd"
   xmlns:inkscape="http://www.inkscape.org/namespaces/inkscape"
   width="102.82806mm"
   height="84.711845mm"
   viewBox="0 0 102.82806 84.711845"
   version="1.1"
   id="svg8"
   inkscape:version="0.92.4 (unknown)"
   sodipodi:docname="map.svg">
  <defs
     id="defs2" />
  <sodipodi:namedview
     id="base"
     pagecolor="#ffffff"
     bordercolor="#666666"
     borderopacity="1.0"
     inkscape:pageopacity="0.0"
     inkscape:pageshadow="2"
     inkscape:zoom="0.35"
     inkscape:cx="705.79612"
     inkscape:cy="175.53446"
     inkscape:document-units="mm"
     inkscape:current-layer="layer1"
     showgrid="false"
     inkscape:snap-bbox="true"
     inkscape:snap-global="false"
     inkscape:window-width="1920"
     inkscape:window-height="1016"
     inkscape:window-x="0"
     inkscape:window-y="27"
     inkscape:window-maximized="1"
     fit-margin-top="5"
     fit-margin-left="5"
     fit-margin-right="5"
     fit-margin-bottom="5" />
  <metadata
     id="metadata5">
    <rdf:RDF>
      <cc:Work
         rdf:about="">
        <dc:format>image/svg+xml</dc:format>
        <dc:type
           rdf:resource="http://purl.org/dc/dcmitype/StillImage" />
        <dc:title />
      </cc:Work>
    </rdf:RDF>
  </metadata>
  <g
     inkscape:label="Layer 1"
     inkscape:groupmode="layer"
     id="layer1"
     transform="translate(-59.536237,-35.597887)">
    <path
       style="fill:none;fill-rule:evenodd;stroke:#00aad4;stroke-width:2;stroke-linecap:butt;stroke-linejoin:miter;stroke-opacity:1;stroke-miterlimit:4;stroke-dasharray:none"
       d="m 73.048886,65.692172 c 0.346478,-0.0315 0.691527,-0.09449 1.039434,-0.09449 0.536392,0 1.071371,0.05628 1.606399,0.09449 0.133819,0.0096 1.804088,0.163232 1.984375,0.188989 0.904203,0.12917 1.619062,0.233103 2.456845,0.472469 0.191547,0.05473 0.38561,0.106553 0.566965,0.188989 0.167201,0.076 0.313005,0.192358 0.47247,0.28348 0.281564,0.160896 0.593405,0.274746 0.850446,0.472472 0.159861,0.12297 0.249764,0.316783 0.377977,0.472469 0.312777,0.379801 0.628016,0.757581 0.94494,1.13393 0.989292,1.174784 0.294132,0.208352 1.322917,2.078868 0.08851,0.160928 0.201345,0.308198 0.283482,0.472469 0.976694,1.95339 0.272102,0.59495 0.755952,1.700896 0.152549,0.348681 0.328366,0.687178 0.472471,1.039434 0.354947,0.867648 0.596784,1.775438 0.944941,2.645833 0.09006,0.225152 0.352592,0.670629 0.472469,0.850445 0.376195,0.564293 0.726623,0.831853 1.322917,1.322917 0.175334,0.144393 0.377976,0.251983 0.566965,0.377975 0.375965,0.250645 0.819533,0.56514 1.228421,0.755955 0.648975,0.302855 2.417172,0.777475 2.740329,0.850445 0.308776,0.06972 0.629959,0.063 0.944941,0.09449 0.314978,0.0315 0.628552,0.08429 0.944938,0.09449 0.661117,0.02133 1.322919,0 1.984377,0 0.314979,0 0.630444,0.01746 0.944939,0 0.253555,-0.01408 0.50356,-0.06645 0.755954,-0.09449 0.314613,-0.03496 0.631891,-0.04754 0.944941,-0.09449 0.317659,-0.04765 0.628389,-0.134411 0.944939,-0.188987 0.59707,-0.102944 1.20187,-0.161735 1.79539,-0.283483 1.24411,-0.255203 2.28741,-0.592354 3.49628,-0.94494 1.10054,-0.320993 2.20925,-0.61553 3.30729,-0.944941 0.19081,-0.05724 0.37615,-0.131744 0.56696,-0.188987 0.87856,-0.263567 1.76389,-0.50397 2.64584,-0.755954 0.22048,-0.063 0.43706,-0.141748 0.66145,-0.188987 0.37497,-0.07894 0.75232,-0.154297 1.13393,-0.188989 0.31369,-0.02852 0.62996,0 0.94494,0 0.0945,0 0.18938,0.0085 0.28348,0 0.25291,-0.02299 0.5024,-0.08041 0.75596,-0.09449 0.31449,-0.01746 0.62996,0 0.94494,0 0.15749,0 0.31606,0.01839 0.47247,0 0.38056,-0.04477 0.75555,-0.128447 1.13393,-0.188989 0.40908,-0.06545 0.82081,-0.114877 1.22842,-0.188987 0.28571,-0.05195 0.56749,-0.12369 0.85045,-0.188989 1.072,-0.247386 2.14079,-0.508566 3.21279,-0.755952 0.28296,-0.0653 0.56616,-0.129759 0.85045,-0.188989 0.4717,-0.09827 0.94869,-0.171881 1.41741,-0.283483 0.19379,-0.04614 0.37448,-0.137657 0.56697,-0.188986 0.28059,-0.07482 0.56649,-0.128143 0.85044,-0.188989 0.59801,-0.128143 1.19213,-0.277432 1.79539,-0.377976 0.34317,-0.05719 0.69287,-0.06392 1.03943,-0.09449 0.72438,-0.06392 1.44759,-0.143626 2.17337,-0.188989 0.28293,-0.01767 0.5678,0.02175 0.85044,0 0.53757,-0.04135 1.0691,-0.144214 1.6064,-0.188986 0.21973,-0.01831 0.44116,-0.0092 0.66146,0 5.21888,0.217453 -0.69625,-0.02122 2.45685,0.188986 0.66074,0.04405 1.32299,0.06143 1.98437,0.0945 4.44199,0.222099 -0.13619,-0.02323 2.83482,0.188987 0.28276,0.02019 0.56697,0 0.85045,0 0.28348,0 0.56696,0 0.85044,0"
       id="path825"
       inkscape:connector-curvature="0" />
    <path
       style="fill:#ffffff;fill-opacity:1;fill-rule:evenodd;stroke:#000000;stroke-width:4;stroke-linecap:butt;stroke-linejoin:miter;stroke-miterlimit:4;stroke-dasharray:none;stroke-opacity:1"
       d="M 99.357446,53.651094 67.418737,44.430296 v 53.053 l 31.938709,9.488074 24.521984,-7.617186"
       id="path821"
       inkscape:connector-curvature="0"
       sodipodi:nodetypes="ccccc" />
    <path
       style="fill:#ffffff;fill-opacity:1;fill-rule:evenodd;stroke:#000000;stroke-width:4;stroke-linecap:butt;stroke-linejoin:miter;stroke-miterlimit:4;stroke-dasharray:none;stroke-opacity:1"
       d="m 123.87943,99.354184 30.60236,11.759856 V 56.190155 L 124.01306,46.033913 99.691534,53.651095"
       id="path819"
       inkscape:connector-curvature="0"
       sodipodi:nodetypes="ccccc" />
    <path
       style="fill:#ffffff;fill-opacity:1;fill-rule:evenodd;stroke:#000000;stroke-width:4;stroke-linecap:butt;stroke-linejoin:miter;stroke-miterlimit:4;stroke-dasharray:none;stroke-opacity:1"
       d="m 99.691533,53.651094 c -0.178181,0.53454 -0.178181,0.53454 0,0 z"
       id="path823"
       inkscape:connector-curvature="0" />
    <path
       style="fill:#ffffff;fill-opacity:1;fill-rule:evenodd;stroke:#000000;stroke-width:4;stroke-linecap:butt;stroke-linejoin:miter;stroke-miterlimit:4;stroke-dasharray:none;stroke-opacity:1"
       d="M 99.691533,53.651094 99.023359,106.97137"
       id="path827"
       inkscape:connector-curvature="0" />
    <path
       style="fill:#ffffff;fill-opacity:1;fill-rule:evenodd;stroke:#000000;stroke-width:4;stroke-linecap:butt;stroke-linejoin:miter;stroke-miterlimit:4;stroke-dasharray:none;stroke-opacity:1"
       d="M 123.94625,46.033912 V 99.354184"
       id="path829"
       inkscape:connector-curvature="0"
       sodipodi:nodetypes="cc" />
  </g>
</svg>
