<?xml version="1.0" encoding="UTF-8" standalone="no"?>
<!-- Generator: Adobe Illustrator 16.0.0, SVG Export Plug-In . SVG Version: 6.00 Build 0)  -->

<svg
   xmlns:dc="http://purl.org/dc/elements/1.1/"
   xmlns:cc="http://creativecommons.org/ns#"
   xmlns:rdf="http://www.w3.org/1999/02/22-rdf-syntax-ns#"
   xmlns:svg="http://www.w3.org/2000/svg"
   xmlns="http://www.w3.org/2000/svg"
   xmlns:sodipodi="http://sodipodi.sourceforge.net/DTD/sodipodi-0.dtd"
   xmlns:inkscape="http://www.inkscape.org/namespaces/inkscape"
   version="1.1"
   id="Capa_1"
   x="0px"
   y="0px"
   width="606.191px"
   height="606.191px"
   viewBox="0 0 606.191 606.191"
   style="enable-background:new 0 0 606.191 606.191;"
   xml:space="preserve"
   sodipodi:docname="menu-three-outlined-bars-svgrepo-com.svg"
   inkscape:version="0.92.4 (unknown)"><metadata
   id="metadata59"><rdf:RDF><cc:Work
       rdf:about=""><dc:format>image/svg+xml</dc:format><dc:type
         rdf:resource="http://purl.org/dc/dcmitype/StillImage" /></cc:Work></rdf:RDF></metadata><defs
   id="defs57" /><sodipodi:namedview
   pagecolor="#ffffff"
   bordercolor="#666666"
   borderopacity="1"
   objecttolerance="10"
   gridtolerance="10"
   guidetolerance="10"
   inkscape:pageopacity="0"
   inkscape:pageshadow="2"
   inkscape:window-width="873"
   inkscape:window-height="480"
   id="namedview55"
   showgrid="false"
   inkscape:zoom="0.38931625"
   inkscape:cx="33.391876"
   inkscape:cy="303.09549"
   inkscape:window-x="0"
   inkscape:window-y="27"
   inkscape:window-maximized="0"
   inkscape:current-layer="Capa_1" />
<g
   id="g22"
   style="fill:#ffffff">
	<g
   id="g20"
   style="fill:#ffffff">
		<g
   id="g6"
   style="fill:#ffffff">
			<path
   d="M544.29,0.5H61.903c-32.059,0-58.14,26.082-58.14,58.14v64.75c0,32.059,26.082,58.14,58.14,58.14H544.29     c32.057,0,58.139-26.082,58.139-58.14V58.64C602.429,26.582,576.349,0.5,544.29,0.5z M559.589,123.39     c0,8.45-6.85,15.3-15.299,15.3H61.903c-8.45,0-15.3-6.85-15.3-15.3V58.64c0-8.45,6.85-15.3,15.3-15.3H544.29     c8.449,0,15.299,6.85,15.299,15.3V123.39z"
   id="path2"
   style="fill:#ffffff" />
			<path
   d="M544.29,182.03H61.903c-32.334,0-58.64-26.306-58.64-58.64V58.64C3.263,26.306,29.568,0,61.903,0H544.29     c32.333,0,58.639,26.306,58.639,58.64v64.75C602.929,155.725,576.623,182.03,544.29,182.03z M61.903,1     C30.12,1,4.263,26.857,4.263,58.64v64.75c0,31.783,25.857,57.64,57.64,57.64H544.29c31.782,0,57.639-25.857,57.639-57.64V58.64     C601.929,26.857,576.072,1,544.29,1H61.903z M544.29,139.19H61.903c-8.712,0-15.8-7.088-15.8-15.8V58.64     c0-8.712,7.088-15.8,15.8-15.8H544.29c8.712,0,15.799,7.088,15.799,15.8v64.75C560.089,132.103,553.002,139.19,544.29,139.19z      M61.903,43.84c-8.161,0-14.8,6.639-14.8,14.8v64.75c0,8.161,6.639,14.8,14.8,14.8H544.29c8.16,0,14.799-6.639,14.799-14.8V58.64     c0-8.161-6.639-14.8-14.799-14.8H61.903z"
   id="path4"
   style="fill:#ffffff" />
		</g>
		<g
   id="g12"
   style="fill:#ffffff">
			<path
   d="M544.29,212.582H61.903c-32.059,0-58.14,26.082-58.14,58.14v64.75c0,32.059,26.082,58.141,58.14,58.141H544.29     c32.057,0,58.139-26.082,58.139-58.141v-64.75C602.429,238.663,576.349,212.582,544.29,212.582z M559.589,335.471     c0,8.449-6.85,15.301-15.299,15.301H61.903c-8.45,0-15.3-6.852-15.3-15.301v-64.75c0-8.45,6.85-15.3,15.3-15.3H544.29     c8.449,0,15.299,6.85,15.299,15.3V335.471z"
   id="path8"
   style="fill:#ffffff" />
			<path
   d="M544.29,394.111H61.903c-32.334,0-58.64-26.306-58.64-58.641v-64.75c0-32.334,26.306-58.64,58.64-58.64H544.29     c32.333,0,58.639,26.306,58.639,58.64v64.75C602.929,367.806,576.623,394.111,544.29,394.111z M61.903,213.082     c-31.783,0-57.64,25.857-57.64,57.64v64.75c0,31.783,25.857,57.641,57.64,57.641H544.29c31.782,0,57.639-25.857,57.639-57.641     v-64.75c0-31.783-25.856-57.64-57.639-57.64H61.903z M544.29,351.271H61.903c-8.712,0-15.8-7.088-15.8-15.801v-64.75     c0-8.712,7.088-15.8,15.8-15.8H544.29c8.712,0,15.799,7.088,15.799,15.8v64.75C560.089,344.184,553.002,351.271,544.29,351.271z      M61.903,255.921c-8.161,0-14.8,6.639-14.8,14.8v64.75c0,8.161,6.639,14.801,14.8,14.801H544.29     c8.16,0,14.799-6.64,14.799-14.801v-64.75c0-8.161-6.639-14.8-14.799-14.8H61.903z"
   id="path10"
   style="fill:#ffffff" />
		</g>
		<g
   id="g18"
   style="fill:#ffffff">
			<path
   d="M544.29,424.662H61.903c-32.059,0-58.14,26.082-58.14,58.141v64.75c0,32.059,26.082,58.139,58.14,58.139H544.29     c32.057,0,58.139-26.08,58.139-58.139v-64.75C602.429,450.744,576.349,424.662,544.29,424.662z M559.589,547.553     c0,8.449-6.85,15.299-15.299,15.299H61.903c-8.45,0-15.3-6.85-15.3-15.299v-64.75c0-8.451,6.85-15.301,15.3-15.301H544.29     c8.449,0,15.299,6.85,15.299,15.301V547.553z"
   id="path14"
   style="fill:#ffffff" />
			<path
   d="M544.29,606.191H61.903c-32.334,0-58.64-26.306-58.64-58.639v-64.75c0-32.335,26.306-58.641,58.64-58.641H544.29     c32.333,0,58.639,26.306,58.639,58.641v64.75C602.929,579.886,576.623,606.191,544.29,606.191z M61.903,425.162     c-31.783,0-57.64,25.857-57.64,57.641v64.75c0,31.782,25.857,57.639,57.64,57.639H544.29c31.782,0,57.639-25.856,57.639-57.639     v-64.75c0-31.783-25.856-57.641-57.639-57.641H61.903z M544.29,563.352H61.903c-8.712,0-15.8-7.087-15.8-15.799v-64.75     c0-8.713,7.088-15.801,15.8-15.801H544.29c8.712,0,15.799,7.088,15.799,15.801v64.75     C560.089,556.265,553.002,563.352,544.29,563.352z M61.903,468.002c-8.161,0-14.8,6.64-14.8,14.801v64.75     c0,8.16,6.639,14.799,14.8,14.799H544.29c8.16,0,14.799-6.639,14.799-14.799v-64.75c0-8.161-6.639-14.801-14.799-14.801H61.903z"
   id="path16"
   style="fill:#ffffff" />
		</g>
	</g>
</g>
<g
   id="g24"
   style="fill:#ffffff">
</g>
<g
   id="g26"
   style="fill:#ffffff">
</g>
<g
   id="g28"
   style="fill:#ffffff">
</g>
<g
   id="g30"
   style="fill:#ffffff">
</g>
<g
   id="g32"
   style="fill:#ffffff">
</g>
<g
   id="g34"
   style="fill:#ffffff">
</g>
<g
   id="g36"
   style="fill:#ffffff">
</g>
<g
   id="g38"
   style="fill:#ffffff">
</g>
<g
   id="g40"
   style="fill:#ffffff">
</g>
<g
   id="g42"
   style="fill:#ffffff">
</g>
<g
   id="g44"
   style="fill:#ffffff">
</g>
<g
   id="g46"
   style="fill:#ffffff">
</g>
<g
   id="g48"
   style="fill:#ffffff">
</g>
<g
   id="g50"
   style="fill:#ffffff">
</g>
<g
   id="g52"
   style="fill:#ffffff">
</g>
</svg>