<?xml version="1.0" encoding="UTF-8" standalone="no"?>
<svg
   xmlns:dc="http://purl.org/dc/elements/1.1/"
   xmlns:cc="http://creativecommons.org/ns#"
   xmlns:rdf="http://www.w3.org/1999/02/22-rdf-syntax-ns#"
   xmlns:svg="http://www.w3.org/2000/svg"
   xmlns="http://www.w3.org/2000/svg"
   xmlns:sodipodi="http://sodipodi.sourceforge.net/DTD/sodipodi-0.dtd"
   xmlns:inkscape="http://www.inkscape.org/namespaces/inkscape"
   id="emoji"
   viewBox="0 0 72 72"
   version="1.1"
   sodipodi:docname="supererase.svg"
   inkscape:version="0.92.4 (unknown)">
  <metadata
     id="metadata43">
    <rdf:RDF>
      <cc:Work
         rdf:about="">
        <dc:format>image/svg+xml</dc:format>
        <dc:type
           rdf:resource="http://purl.org/dc/dcmitype/StillImage" />
      </cc:Work>
    </rdf:RDF>
  </metadata>
  <defs
     id="defs41" />
  <sodipodi:namedview
     pagecolor="#ffffff"
     bordercolor="#666666"
     borderopacity="1"
     objecttolerance="10"
     gridtolerance="10"
     guidetolerance="10"
     inkscape:pageopacity="0"
     inkscape:pageshadow="2"
     inkscape:window-width="1920"
     inkscape:window-height="1016"
     id="namedview39"
     showgrid="false"
     inkscape:zoom="0.81944445"
     inkscape:cx="-213.0411"
     inkscape:cy="-87.202029"
     inkscape:window-x="0"
     inkscape:window-y="27"
     inkscape:window-maximized="1"
     inkscape:current-layer="emoji" />
  <path
     inkscape:connector-curvature="0"
     style="fill:#cee8fa;stroke-width:0.10445475"
     d="m 67.333335,39.30812 c 1.817934,-1.817934 1.817934,-4.765432 0,-6.583261 L 54.952629,20.344153 c -1.817933,-1.817933 -4.76544,-1.817933 -6.58326,0 L 36.440947,32.272566 55.404914,51.236541 Z"
     id="path2-3" />
  <path
     id="path6"
     d="m 68.397937,40.37262 c 1.163521,-1.163521 1.804351,-2.7106 1.804351,-4.356285 0,-1.645476 -0.64083,-3.192451 -1.804351,-4.356076 L 56.017229,19.279551 c -1.163521,-1.163522 -2.710601,-1.804352 -4.356076,-1.804352 -1.645685,0 -3.192556,0.64083 -4.356286,1.804352 L 35.376343,31.20797 c -0.282236,0.282445 -0.440903,0.665272 -0.440903,1.064498 0,0.399226 0.158667,0.782053 0.440903,1.064498 l 17.899471,17.89947 -9.33533,9.335226 H 36.42862 L 25.576921,49.720067 c -0.594974,-0.594766 -0.922648,-1.385802 -0.922648,-2.22708 0,-0.841383 0.327674,-1.632419 0.922648,-2.227184 l 5.457239,-5.457238 c 0.587871,-0.587872 0.587871,-1.541022 0,-2.129102 -0.587976,-0.587662 -1.540917,-0.587662 -2.129102,0 l -5.457238,5.457239 c -2.401937,2.401937 -2.401937,6.310216 0,8.712153 l 11.292707,11.292916 c 0.0095,0.0095 0.01985,0.01744 0.02945,0.02664 0.0259,0.02455 0.0516,0.04909 0.07918,0.07176 0.0119,0.0098 0.02465,0.01817 0.03688,0.02758 0.02685,0.02079 0.05358,0.04157 0.08179,0.06047 0.0098,0.0065 0.02016,0.0119 0.03009,0.01817 0.03165,0.02016 0.06351,0.04001 0.09662,0.05777 0.0069,0.0037 0.01431,0.0066 0.0212,0.01024 0.03656,0.01901 0.07374,0.03708 0.112185,0.05296 0.0047,0.002 0.0095,0.0033 0.014,0.0051 0.04064,0.0164 0.082,0.03165 0.124302,0.0446 0.005,0.0015 0.01024,0.0024 0.01525,0.0039 0.04168,0.01222 0.08398,0.0233 0.127225,0.03196 0.01191,0.0024 0.02413,0.0035 0.03614,0.0056 0.03624,0.0063 0.0727,0.01264 0.109886,0.0164 0.04972,0.005 0.09986,0.0076 0.150206,0.0076 h 8.759366 17.91869 c 0.831251,0 1.505402,-0.67415 1.505402,-1.505401 0,-0.831252 -0.674151,-1.505402 -1.505402,-1.505402 H 48.198686 L 56.469414,52.30099 Z M 49.433969,21.408652 c 0.594764,-0.594975 1.3858,-0.922649 2.227184,-0.922649 0.841173,0 1.632314,0.327674 2.227079,0.922649 l 12.380604,12.380604 c 0.594974,0.594764 0.922648,1.3858 0.922648,2.227079 0,0.841383 -0.327674,1.632419 -0.922648,2.227184 L 55.404915,49.107648 38.569839,32.272572 Z"
     style="fill:#2d527c;stroke-width:0.10445475"
     inkscape:connector-curvature="0" />
  <path
     id="path8"
     d="m 56.295496,59.387458 c -0.494384,0 -0.978532,-0.243066 -1.266514,-0.689506 C 54.57826,57.99915 54.77944,57.067623 55.477929,56.6169 l 4.231044,-2.729402 c 0.698698,-0.450826 1.630121,-0.249751 2.081052,0.448946 0.450723,0.698802 0.249542,1.63033 -0.448947,2.081053 l -4.231043,2.729506 c -0.252154,0.162741 -0.535017,0.240455 -0.814539,0.240455 z"
     style="fill:#2d527c;stroke-width:0.10445475"
     inkscape:connector-curvature="0" />
  <g
     transform="matrix(0.12030147,0,0,0.12030147,4.696963,6.234394)"
     id="g12" />
  <g
     transform="matrix(0.12030147,0,0,0.12030147,4.696963,6.234394)"
     id="g14" />
  <g
     transform="matrix(0.12030147,0,0,0.12030147,4.696963,6.234394)"
     id="g16" />
  <g
     transform="matrix(0.12030147,0,0,0.12030147,4.696963,6.234394)"
     id="g18" />
  <g
     transform="matrix(0.12030147,0,0,0.12030147,4.696963,6.234394)"
     id="g20" />
  <g
     transform="matrix(0.12030147,0,0,0.12030147,4.696963,6.234394)"
     id="g22" />
  <g
     transform="matrix(0.12030147,0,0,0.12030147,4.696963,6.234394)"
     id="g24" />
  <g
     transform="matrix(0.12030147,0,0,0.12030147,4.696963,6.234394)"
     id="g26" />
  <g
     transform="matrix(0.12030147,0,0,0.12030147,4.696963,6.234394)"
     id="g28" />
  <g
     transform="matrix(0.12030147,0,0,0.12030147,4.696963,6.234394)"
     id="g30" />
  <g
     transform="matrix(0.12030147,0,0,0.12030147,4.696963,6.234394)"
     id="g32" />
  <g
     transform="matrix(0.12030147,0,0,0.12030147,4.696963,6.234394)"
     id="g34" />
  <g
     transform="matrix(0.12030147,0,0,0.12030147,4.696963,6.234394)"
     id="g36" />
  <g
     transform="matrix(0.12030147,0,0,0.12030147,4.696963,6.234394)"
     id="g38" />
  <g
     transform="matrix(0.12030147,0,0,0.12030147,4.696963,6.234394)"
     id="g40" />
  <path
     style="fill:#ffffff;fill-opacity:1;fill-rule:evenodd;stroke:#000000;stroke-width:0.10445475px;stroke-linecap:butt;stroke-linejoin:miter;stroke-opacity:1"
     d="M 36.440947,32.272566 22.779466,46.874172 36.428618,60.57166 h 7.511863 l 11.464433,-9.335119 z"
     id="path854"
     inkscape:connector-curvature="0" />
  <g
     id="hair" />
  <g
     id="skin" />
  <g
     id="skin-shadow" />
  <path
     style="fill:#ff0000;fill-opacity:1;fill-rule:evenodd;stroke:#000000;stroke-width:0.90443718px;stroke-linecap:butt;stroke-linejoin:miter;stroke-opacity:1"
     d="m 46.530694,16.196454 c -0.08895,-0.03279 -0.117545,-0.147822 -0.203238,-0.18731 -0.0606,-0.02792 -0.142644,0.02792 -0.203238,0 -0.08569,-0.03949 -0.123522,-0.138332 -0.203238,-0.187311 -0.02819,-0.01732 -0.06774,0 -0.101619,0 h -0.203238 c -0.237111,0 -0.492461,-0.08405 -0.711333,0 -0.221094,0.0849 -0.321063,0.330377 -0.508096,0.468277 -0.154231,0.113715 -1.745952,1.203477 -4.369618,2.341385 -0.29076,0.126105 -0.611544,0.182397 -0.914571,0.280966 -0.272912,0.08877 -5.504364,2.05695 -6.198759,2.341385 -0.861949,0.353065 0.115472,0.03111 -1.117811,0.468276 -0.199951,0.07088 -15.53611,4.350334 -15.852567,4.401803 -0.266861,0.0434 -1.347629,0.20769 -1.625904,0.280967 -2.418785,0.636922 -9.2421639,0.265236 -9.5521884,0.18731 -0.4359982,-0.10959 -0.8779006,-0.199282 -1.3210473,-0.280966 -0.066432,-0.01224 -0.1389683,0.01975 -0.203238,0 -1.3582971,-0.417283 0.639811,-0.0082 -0.9145713,-0.187311 -0.1062882,-0.01224 -0.2032389,-0.124874 -0.3048566,-0.09365 -0.06427,0.01974 0,0.124874 0,0.187311 0,0.124873 -0.032864,0.253476 0,0.374621 0.05913,0.217957 5.546199,20.056931 5.5890457,20.135908 0.015151,0.02792 -0.015151,0.06573 0,0.09365 0.02142,0.03949 0.067743,0.06244 0.1016186,0.09366 0.033871,0.03121 0.058774,0.07391 0.1016194,0.09365 0.030294,0.01396 0.067743,0 0.1016194,0 h 0.3048566 0.8129522 0.2032381 c 0.067746,0 0.1389686,0.01975 0.2032381,0 0.045446,-0.01396 0.067745,-0.06244 0.101619,-0.09365 0.101619,-0.03122 41.0540855,-27.628339 41.0540855,-27.628339 0.03388,-0.03121 0.06774,-0.06244 0.101619,-0.09366 0.03388,-0.03121 0.08646,-0.05178 0.101619,-0.09366 0.02142,-0.05923 -0.02142,-0.128077 0,-0.18731 0.03029,-0.08377 0.160392,-0.108334 0.203238,-0.187312 0.01515,-0.02792 -0.03387,-0.09365 0,-0.09365 0.03388,0 0,0.124873 0,0.09365 0,-0.09365 0.02464,-0.190107 0,-0.280965 -0.05227,-0.192678 -4.376886,-2.212946 -4.471237,-2.24773 z"
     id="path836"
     inkscape:connector-curvature="0"
     sodipodi:nodetypes="ccccsscsssccccsccccscccccsccscccccscsscc" />
</svg>
