<?xml version="1.0" encoding="UTF-8" standalone="no"?>
<!-- Generator: Adobe Illustrator 19.0.0, SVG Export Plug-In . SVG Version: 6.00 Build 0)  -->

<svg
   xmlns:dc="http://purl.org/dc/elements/1.1/"
   xmlns:cc="http://creativecommons.org/ns#"
   xmlns:rdf="http://www.w3.org/1999/02/22-rdf-syntax-ns#"
   xmlns:svg="http://www.w3.org/2000/svg"
   xmlns="http://www.w3.org/2000/svg"
   xmlns:sodipodi="http://sodipodi.sourceforge.net/DTD/sodipodi-0.dtd"
   xmlns:inkscape="http://www.inkscape.org/namespaces/inkscape"
   version="1.1"
   id="Layer_1"
   x="0px"
   y="0px"
   viewBox="0 0 512 512"
   style="enable-background:new 0 0 512 512;"
   xml:space="preserve"
   sodipodi:docname="text-svgrepo-com.svg"
   inkscape:version="0.92.4 (unknown)"><metadata
   id="metadata49"><rdf:RDF><cc:Work
       rdf:about=""><dc:format>image/svg+xml</dc:format><dc:type
         rdf:resource="http://purl.org/dc/dcmitype/StillImage" /></cc:Work></rdf:RDF></metadata><defs
   id="defs47" /><sodipodi:namedview
   pagecolor="#ffffff"
   bordercolor="#666666"
   borderopacity="1"
   objecttolerance="10"
   gridtolerance="10"
   guidetolerance="10"
   inkscape:pageopacity="0"
   inkscape:pageshadow="2"
   inkscape:window-width="1920"
   inkscape:window-height="1016"
   id="namedview45"
   showgrid="false"
   inkscape:zoom="0.4609375"
   inkscape:cx="32.542373"
   inkscape:cy="256"
   inkscape:window-x="0"
   inkscape:window-y="27"
   inkscape:window-maximized="1"
   inkscape:current-layer="Layer_1" />
<g
   id="g6"
   style="fill:#ffffff;fill-opacity:1">
	<g
   id="g4"
   style="fill:#ffffff;fill-opacity:1">
		<path
   d="M405.787,43.574H8.17c-4.513,0-8.17,3.658-8.17,8.17v119.83c0,4.512,3.657,8.17,8.17,8.17h32.681    c4.513,0,8.17-3.658,8.17-8.17v-24.511h95.319v119.83c0,4.512,3.657,8.17,8.17,8.17c4.513,0,8.17-3.658,8.17-8.17v-128    c0-4.512-3.657-8.17-8.17-8.17H40.851c-4.513,0-8.17,3.658-8.17,8.17v24.511H16.34V59.915h381.277v103.489h-16.34v-24.511    c0-4.512-3.657-8.17-8.17-8.17h-111.66c-4.513,0-8.17,3.658-8.17,8.17v288.681c0,4.512,3.657,8.17,8.17,8.17h57.191v16.34H95.319    v-16.34h57.191c4.513,0,8.17-3.658,8.17-8.17v-128c0-4.512-3.657-8.17-8.17-8.17c-4.513,0-8.17,3.658-8.17,8.17v119.83H87.149    c-4.513,0-8.17,3.658-8.17,8.17v32.681c0,4.512,3.657,8.17,8.17,8.17h239.66c4.513,0,8.17-3.658,8.17-8.17v-32.681    c0-4.512-3.657-8.17-8.17-8.17h-57.192v-272.34h95.319v24.511c0,4.512,3.657,8.17,8.17,8.17h32.681c4.513,0,8.17-3.658,8.17-8.17    V51.745C413.957,47.233,410.3,43.574,405.787,43.574z"
   id="path2"
   style="fill:#ffffff;fill-opacity:1" />
	</g>
</g>
<g
   id="g12">
	<g
   id="g10">
		<path
   d="M503.83,452.085h-24.511V59.915h24.511c4.513,0,8.17-3.658,8.17-8.17s-3.657-8.17-8.17-8.17h-65.362    c-4.513,0-8.17,3.658-8.17,8.17s3.657,8.17,8.17,8.17h24.511v392.17h-24.511c-4.513,0-8.17,3.658-8.17,8.17s3.657,8.17,8.17,8.17    h65.362c4.513,0,8.17-3.658,8.17-8.17S508.343,452.085,503.83,452.085z"
   id="path8" />
	</g>
</g>
<g
   id="g14">
</g>
<g
   id="g16">
</g>
<g
   id="g18">
</g>
<g
   id="g20">
</g>
<g
   id="g22">
</g>
<g
   id="g24">
</g>
<g
   id="g26">
</g>
<g
   id="g28">
</g>
<g
   id="g30">
</g>
<g
   id="g32">
</g>
<g
   id="g34">
</g>
<g
   id="g36">
</g>
<g
   id="g38">
</g>
<g
   id="g40">
</g>
<g
   id="g42">
</g>
</svg>