<?xml version="1.0" encoding="UTF-8" standalone="no"?>
<svg
   xmlns:dc="http://purl.org/dc/elements/1.1/"
   xmlns:cc="http://creativecommons.org/ns#"
   xmlns:rdf="http://www.w3.org/1999/02/22-rdf-syntax-ns#"
   xmlns:svg="http://www.w3.org/2000/svg"
   xmlns="http://www.w3.org/2000/svg"
   xmlns:xlink="http://www.w3.org/1999/xlink"
   xmlns:sodipodi="http://sodipodi.sourceforge.net/DTD/sodipodi-0.dtd"
   xmlns:inkscape="http://www.inkscape.org/namespaces/inkscape"
   width="6.0552187mm"
   height="6.0552201mm"
   viewBox="0 0 6.0552187 6.0552202"
   version="1.1"
   id="svg8"
   inkscape:version="1.0.1 (0767f8302a, 2020-10-17)"
   sodipodi:docname="tableaunoir_logo_vert_petit.svg"
   inkscape:export-filename="/home/karine/craie_version_fond_vert_bis_petit.png"
   inkscape:export-xdpi="134.23129"
   inkscape:export-ydpi="134.23129">
  <defs
     id="defs2">
    <linearGradient
       inkscape:collect="always"
       id="linearGradient2631">
      <stop
         style="stop-color:#007500;stop-opacity:1"
         offset="0"
         id="stop2627" />
      <stop
         style="stop-color:#000100;stop-opacity:0.99260741"
         offset="1"
         id="stop2629" />
    </linearGradient>
    <linearGradient
       inkscape:collect="always"
       id="linearGradient2565">
      <stop
         style="stop-color:#ececec;stop-opacity:1;"
         offset="0"
         id="stop2561" />
      <stop
         style="stop-color:#ececec;stop-opacity:0;"
         offset="1"
         id="stop2563" />
    </linearGradient>
    <rect
       x="-6.2673793"
       y="7.2005405"
       width="91.92057"
       height="96.500732"
       id="rect841" />
    <linearGradient
       id="linearGradient8951"
       y2="531.89111"
       gradientUnits="userSpaceOnUse"
       x2="95.893456"
       gradientTransform="matrix(-0.00474297,0.00467511,-0.00527329,-0.0051324,-15.453705,-4.3550245)"
       y1="597.97595"
       x1="100.92557"
       inkscape:collect="always">
      <stop
         id="stop2838"
         style="stop-color:#faebd7"
         offset="0" />
      <stop
         id="stop2840"
         style="stop-color:#faebd7;stop-opacity:0"
         offset="1" />
    </linearGradient>
    <linearGradient
       id="linearGradient8953"
       y2="986.65002"
       gradientUnits="userSpaceOnUse"
       x2="534.28998"
       gradientTransform="matrix(0.00448224,0,0,0.00663795,8.3822729,11.632587)"
       y1="826.65002"
       x1="534.28998"
       inkscape:collect="always">
      <stop
         id="stop2852"
         style="stop-color:#791f1f"
         offset="0" />
      <stop
         id="stop2854"
         style="stop-color:#cd853f;stop-opacity:0"
         offset="1" />
    </linearGradient>
    <linearGradient
       inkscape:collect="always"
       xlink:href="#linearGradient2565"
       id="linearGradient2567"
       x1="129.18143"
       y1="85.028252"
       x2="163.97459"
       y2="128.75833"
       gradientUnits="userSpaceOnUse"
       gradientTransform="matrix(0.38012914,2.4103306,2.4103306,-0.38012914,-152.31132,-201.12628)" />
    <radialGradient
       inkscape:collect="always"
       xlink:href="#linearGradient2631"
       id="radialGradient2639"
       cx="34.887466"
       cy="27.581615"
       fx="34.887466"
       fy="27.581615"
       r="163.23192"
       gradientUnits="userSpaceOnUse"
       gradientTransform="matrix(0.03821255,0.00294668,-0.00302324,0.03920542,-22.534756,-7.9447409)" />
    <filter
       inkscape:label="Chalk and Sponge"
       inkscape:menu="Distort"
       inkscape:menu-tooltip="Low turbulence gives sponge look and high turbulence chalk"
       width="1.2534039"
       height="1.397018"
       y="-0.5"
       x="-0.30000001"
       style="color-interpolation-filters:sRGB"
       id="filter2668">
      <feTurbulence
         baseFrequency="0.4"
         type="fractalNoise"
         seed="0"
         numOctaves="5"
         result="result1"
         id="feTurbulence2664" />
      <feDisplacementMap
         xChannelSelector="R"
         yChannelSelector="G"
         scale="30"
         in="SourceGraphic"
         in2="result1"
         id="feDisplacementMap2666" />
    </filter>
    <linearGradient
       id="linearGradient8951-1"
       y2="521.14093"
       gradientUnits="userSpaceOnUse"
       x2="107.35779"
       gradientTransform="matrix(-0.00470487,0.00471345,0.00509911,0.00530549,-20.867849,-9.8291856)"
       y1="559.66864"
       x1="107.49643"
       inkscape:collect="always">
      <stop
         id="stop2838-0"
         style="stop-color:#b2b2b2;stop-opacity:1"
         offset="0" />
      <stop
         id="stop2840-3"
         style="stop-color:#faebd7;stop-opacity:0"
         offset="1" />
    </linearGradient>
  </defs>
  <sodipodi:namedview
     id="base"
     pagecolor="#ffffff"
     bordercolor="#666666"
     borderopacity="1.0"
     inkscape:pageopacity="0.0"
     inkscape:pageshadow="2"
     inkscape:zoom="25.484927"
     inkscape:cx="17.147521"
     inkscape:cy="11.896641"
     inkscape:document-units="mm"
     inkscape:current-layer="layer1"
     inkscape:document-rotation="0"
     showgrid="false"
     fit-margin-top="0"
     fit-margin-left="0"
     fit-margin-right="0"
     fit-margin-bottom="0"
     inkscape:window-width="1848"
     inkscape:window-height="1016"
     inkscape:window-x="72"
     inkscape:window-y="27"
     inkscape:window-maximized="1"
     inkscape:snap-global="false" />
  <metadata
     id="metadata5">
    <rdf:RDF>
      <cc:Work
         rdf:about="">
        <dc:format>image/svg+xml</dc:format>
        <dc:type
           rdf:resource="http://purl.org/dc/dcmitype/StillImage" />
        <dc:title></dc:title>
      </cc:Work>
    </rdf:RDF>
  </metadata>
  <g
     inkscape:label="Calque 1"
     inkscape:groupmode="layer"
     id="layer1"
     transform="translate(24.312613,9.7882)">
    <path
       id="rect833"
       style="fill:url(#radialGradient2639);fill-opacity:1;stroke:#000000;stroke-width:0.0296447;stroke-linecap:round;paint-order:stroke markers fill"
       d="m -24.297791,-9.7733777 v 6.0255754 h 6.025574 v -6.0255754 z" />
    <g
       aria-label="T"
       id="text839"
       style="font-style:normal;font-variant:normal;font-weight:normal;font-stretch:normal;font-size:10.5833px;line-height:1.25;font-family:'Chalkaholic DEMO';-inkscape-font-specification:'Chalkaholic DEMO, Normal';font-variant-ligatures:normal;font-variant-caps:normal;font-variant-numeric:normal;font-variant-east-asian:normal;white-space:pre;shape-inside:url(#rect841);fill:#ffffff;fill-opacity:1;stroke:none"
       transform="matrix(0.5254118,-0.04206318,0.04206318,0.5254118,-20.653895,-13.919179)">
      <path
         d="m -4.2038347,16.362552 0.09525,0.08467 0.084666,-0.0635 0.03175,0.05292 0.1375829,-0.07408 v -0.08467 h 0.0635 l 0.03175,0.0635 0.1375829,-0.0635 h 0.084666 v -0.105833 h 0.084666 l 0.03175,-0.02117 -0.03175,-0.03175 v -0.03175 h 0.052916 l 0.042333,0.0635 h 0.1269996 l 0.03175,-0.09525 0.0635,0.105833 0.052917,-0.137583 0.2751658,-0.04233 0.105833,0.07408 0.1481661,-0.03175 0.021167,-0.03175 h -0.1375828 l -0.052916,-0.05292 0.1587494,-0.03175 0.074083,0.02117 h 0.2751658 l 0.042333,-0.02117 h 0.052916 l 0.021167,-0.0635 h 0.084666 l 0.1164163,-0.0635 0.084666,0.05292 0.03175,-0.07408 -0.03175,-0.08467 0.09525,-0.04233 0.052917,-0.0635 0.052917,0.190499 h 0.052917 l -0.052917,-0.127 0.2539992,-0.03175 -0.042333,0.09525 v 0.0635 h 0.03175 l 0.084666,-0.105833 0.1693328,-0.05292 v -0.08467 l -0.0635,-0.07408 0.03175,-0.05292 v -0.02117 H -1.261677 v -0.105833 h 0.1481662 l -0.084666,-0.08467 v -0.09525 l -0.105833,-0.08467 h -0.1587495 l -0.052917,0.03175 -0.3386656,0.02117 v -0.275166 l -0.09525,0.03175 0.03175,-0.0635 0.084666,-0.03175 v -0.07408 l -0.0635,-0.0635 0.084666,-0.08467 -0.105833,-0.04233 v -0.03175 l 0.074083,-0.04233 -0.1164163,-0.127 0.105833,-0.04233 v -0.08467 l -0.0635,-0.04233 0.0635,-0.05292 v -0.03175 h -0.0635 V 13.72731 l -0.1904994,-0.126999 0.1587495,-0.05292 v -0.253999 l -0.105833,-0.04233 0.042333,-0.04233 v -0.15875 l 0.03175,-0.05292 v -0.0635 H -2.118926 v -0.0635 l 0.1375829,-0.03175 -0.052916,-0.02117 -0.052917,-0.05292 0.052917,-0.05292 v -0.296333 l 0.052916,-0.116416 v -0.0635 h -0.074083 v -0.02117 l 0.09525,-0.0635 -0.052917,-0.04233 v -0.666748 l -0.042333,-0.116417 v -0.148166 l -0.0635,-0.370415 v -0.179916 l -0.1481662,-0.03175 0.09525,-0.08467 -0.074083,-0.116416 0.03175,-0.04233 0.042333,-0.201083 -0.0635,-0.09525 0.03175,-0.1058326 h -0.084666 l -0.09525,-0.084666 -0.03175,0.0635 -0.03175,-0.03175 v -0.09525 l -0.042333,-0.03175 0.042333,-0.021167 h 0.09525 l -0.03175,-0.1269996 h 0.052916 l 0.2222493,-0.09525 0.074083,0.074083 h 0.052916 l 0.1904994,0.042333 0.052917,-0.084666 0.074083,-0.021167 v 0.021167 h 0.084666 l 0.0635,-0.0635 h 0.1164163 l 0.2010827,-0.1269996 0.25399919,0.105833 0.0423332,-0.03175 -0.0952497,-0.0635 V 9.1976581 h 0.0634998 v 0.0635 l 0.0211666,0.0635 0.0634998,-0.03175 h 0.0317499 l -0.0423332,0.1269996 0.0634998,0.1375829 V 9.864406 l 0.0317499,0.03175 0.0846664,-0.042333 v 0.042333 l -0.0529165,0.03175 v 0.021167 l 0.16933279,0.0635 v 0.0635 l -0.0846664,0.04233 v 0.09525 l 0.0846664,0.05292 v 0.05292 l -0.0317499,0.03175 v 0.0635 h 0.1375829 v 0.03175 l -0.0423332,0.02117 0.0211666,0.04233 h 0.0846664 l 0.0317499,0.0635 h 0.0846664 l 0.0952497,0.02117 0.08466639,-0.0635 0.1375829,-0.02117 v -0.0635 l 0.11641629,-0.09525 -0.06349979,-0.03175 -0.0740831,-0.09525 0.0211666,-0.02117 0.0529165,0.02117 0.0423332,-0.02117 -0.0423332,-0.08467 -0.1164163,0.05292 h -0.13758289 l 0.0317499,-0.03175 0.2645825,-0.08467 -0.1164163,-0.063499 V 9.949071 h 0.0740831 L 0.19881795,9.9067392 0.09298496,9.864406 h -0.0529165 l -0.1375829,0.148166 V 9.927906 l 0.0529165,-0.0635 -0.0423332,-0.042333 0.1799161,-0.105833 V 9.5363237 h -0.0740831 v -0.0635 h 0.0529165 v -0.03175 l -0.0740831,-0.042333 -0.0740831,0.1375829 h -0.0529165 v -0.0635 l 0.0529165,-0.0635 V 9.2929078 l -0.0211666,-0.09525 -0.08466639,-0.4339167 0.0740831,0.6032497 -0.10583299,-0.4550837 -0.0740831,-0.0635 -0.105833,0.0635 0.0317499,-0.09525 0.0952497,-0.042333 -0.0317499,-0.042333 h -0.0634998 l -0.0952497,-0.09525 h 0.0634998 l 0.0952497,0.03175 0.0846664,-0.03175 0.0317499,0.03175 v -0.09525 l -0.0634998,0.042333 h -0.0529165 v -0.105833 h -0.0634998 v 0.0635 h -0.0317499 l -0.10583299,-0.105833 -0.0952497,0.042333 -0.0211666,-0.021167 0.0211666,-0.0635 h -0.0529165 l -0.0423332,0.084666 -0.10583299,-0.0635 -0.1375829,0.1164163 -0.0952497,-0.052917 -0.084666,0.042333 -0.03175,-0.105833 -0.052917,0.042333 h -0.2222493 l -0.042333,-0.042333 -0.03175,0.074083 -0.084666,-0.03175 -0.021167,0.0635 h -0.1164163 l -0.021167,-0.042333 -0.1587495,0.042333 v 0.0635 h -0.084666 v 0.084666 l -0.03175,0.03175 -0.105833,-0.084666 v -0.09525 h -0.052916 v 0.0635 l -0.042333,0.052917 -0.052916,-0.074083 -0.1164163,0.042333 h -0.1481662 l -0.074083,-0.0635 h -0.1058329 l -0.052917,0.09525 -0.084666,0.0635 h -0.052916 V 8.6155749 l 0.084666,0.074083 0.042333,-0.1375829 -0.2963324,-0.042333 -0.0635,0.042333 h -0.1904994 l -0.03175,0.1799161 h -0.042333 v -0.09525 h -0.021167 l -0.03175,0.0635 -0.2857491,0.042333 -0.2328326,-0.042333 -0.052916,0.03175 -0.052917,-0.042333 -0.0635,0.074083 -0.09525,-0.074083 -0.084666,0.042333 h -0.4550819 l -0.1164163,0.03175 h -0.0635 l -0.021167,0.084666 -0.03175,-0.084666 h -0.2222493 l -0.084666,0.03175 -0.052917,-0.052917 -0.105833,0.052917 -0.1693327,0.021167 -0.052917,0.09525 h 0.105833 v 0.03175 l -0.105833,0.052917 0.052917,0.09525 h -0.1164163 l -0.2963324,0.5714997 0.03175,0.1375829 v 0.1269996 l 0.0635,-0.03175 v 0.09525 l 0.084666,0.021166 v 0.0635 l -0.0635,0.04233 -0.03175,0.08467 h 0.1269996 l -0.042333,0.08467 h 0.1587495 l 0.0635,-0.02117 0.021167,0.02117 v 0.03175 l 0.03175,0.03175 v 0.158749 h 0.1375828 v 0.0635 h -0.03175 l -0.021167,-0.04233 -0.03175,0.04233 v 0.04233 h 0.084666 l 0.03175,-0.02117 h 0.1164163 l 0.2010827,-0.0635 v -0.08467 l 0.09525,-0.09525 -0.042333,-0.4868128 h 0.3492489 v -0.03175 l -0.03175,-0.03175 h 0.1481662 l -0.03175,0.0635 0.03175,0.03175 0.0635,-0.0635 h 0.2539992 v 0.09525 l 0.084666,0.084668 v 0.0635 h -0.021167 l -0.052917,-0.05292 -0.0635,0.148168 0.052916,-0.03175 0.052917,0.05292 -0.105833,0.07408 v 0.05292 l 0.105833,0.04233 0.03175,-0.04233 h 0.0635 l 0.03175,0.03175 -0.1164163,0.0635 h -0.1164163 v 0.116416 l -0.042333,0.243415 0.084666,0.126999 0.0635,0.232832 h -0.052917 l -0.052916,-0.232832 -0.0635,0.0635 v 0.211665 l 0.074083,0.07408 -0.052916,0.04233 0.042333,0.09525 -0.0635,0.02117 0.021167,0.03175 -0.021167,0.0635 v 0.0635 h 0.0635 l 0.021167,0.02117 -0.021167,0.04233 h -0.0635 v 0.148166 l 0.03175,0.07408 -0.03175,0.07408 v 0.423332 l 0.052917,0.285751 0.0635,-0.03175 h 0.0635 v 0.02117 l -0.1164163,0.04233 0.052916,0.296333 -0.03175,0.05292 0.052917,0.127001 v 0.0635 l 0.0635,0.116416 v 0.127 l 0.03175,0.02117 v 0.0635 l 0.0635,0.03175 v 0.03175 h -0.0635 l -0.03175,0.02117 0.03175,0.04233 v 0.148166 l 0.0635,0.0635 -0.0635,0.0635 v 0.08467 l 0.0635,0.03175 -0.0635,0.08467 h 0.1164163 v 0.04233 l -0.105833,0.07408 0.052917,0.03175 v 0.127 l 0.03175,0.05292 0.052917,-0.05292 v 0.0635 l -0.074083,0.03175 0.042333,0.08467 -0.042333,0.04233 0.042333,0.08467 -0.042333,0.04233 0.042333,0.09525 -0.03175,0.08467 0.03175,0.105833 0.03175,0.190499 0.021167,0.02117 v 0.455082 h -0.2645825 l 0.084666,-0.07408 0.1269996,0.0635 v -0.07408 l -0.1693328,-0.03175 -0.1164163,0.116417 h -0.1164163 l -0.074083,0.07408 0.1164163,0.232832 -0.042333,0.09525 0.1375829,0.07408 -0.0635,0.04233 0.09525,0.105833 z m 0.7302477,-5.29165 h -0.0635 v -0.02117 l 0.1693328,-0.07408 0.0635,0.09525 -0.105833,0.09525 z m 0.5079984,-1.2699958 v -0.052917 h 0.2010827 l 0.042333,0.021167 -0.1375829,0.074083 z m -1.3229125,1.5557448 v -0.09525 l 0.0635,-0.0635 0.03175,-0.08467 h 0.052917 l -0.052917,0.05292 -0.03175,0.243416 z m 1.5345785,-1.3758287 0.084666,-0.084666 h 0.084666 v 0.03175 l -0.021167,0.021167 -0.042333,0.1058327 z M -4.2250013,9.8326561 h 0.1375829 v 0.0635 h -0.052917 l -0.084666,0.042333 z m 0.9207471,6.1912299 0.09525,-0.105833 0.052916,0.05292 -0.1164163,0.08467 h -0.03175 z m -2.5399919,-5.640898 0.052917,0.0635 h 0.0635 l 0.042333,-0.09525 z m 2.1695764,1.365245 h 0.105833 v 0.0635 l -0.105833,0.03175 z m 1.3229124,0.698498 h 0.084666 v 0.09525 h -0.084666 z m -1.3546623,-0.89958 0.1799161,-0.05292 -0.09525,0.09525 h -0.084666 z m 1.0054135,-2.9104095 h 0.09525 v 0.03175 l -0.0635,0.0635 h -0.03175 z m 2.57174176,1.0477484 0.0529165,-0.0635 0.0317499,0.042333 h 0.0634998 v 0.052917 z m -2.22249296,0.5185821 0.0635,-0.03175 0.021167,-0.03175 h 0.03175 v 0.08467 h -0.09525 z m -0.7408309,-1.5557472 0.074083,-0.03175 0.03175,0.021167 -0.03175,0.09525 z m -1.0794966,2.6458262 0.1164163,-0.05292 0.03175,0.02117 -0.105833,0.07408 z m 2.5929084,4.011071 0.0635,-0.0635 h 0.03175 v 0.08467 h -0.0635 z m -0.6879145,0.539748 v -0.07408 l 0.1164163,0.05292 v 0.02117 z m 0.9842469,-0.275165 v -0.03175 h 0.084666 v 0.08467 z m 1.50282855,-5.492733 v 0.127 h 0.0317499 l 0.0211666,-0.03175 -0.0211666,-0.03175 v -0.0635 z m -3.69357155,1.280579 0.021167,-0.03175 h 0.09525 l -0.074083,0.07408 z m -1.9155773,-0.888997 v -0.03175 l 0.1164163,0.03175 -0.021167,0.04233 z m 3.6512384,5.333983 0.074083,0.04233 0.03175,-0.02117 -0.052917,-0.0635 z m -1.7779943,-4.021654 h 0.1164163 v 0.03175 H -3.5159202 Z M -4.320251,10.573487 h 0.052917 l -0.021167,0.04233 v 0.04233 l -0.03175,0.02117 z m 2.9527406,4.730735 h 0.0635 v 0.02117 l -0.0635,0.0635 z m -1.1218298,-5.29165 h 0.042333 l 0.09525,0.04233 h -0.1164163 z m -0.09525,-0.3492487 v 0.105833 h -0.0635 z M -5.473831,10.351238 h 0.03175 v 0.0635 h -0.0635 z m 1.9579105,1.301746 h 0.0635 v 0.04233 h -0.0635 z m 0.6455813,-1.301746 h 0.084666 v 0.03175 h -0.0635 z m -2.4553256,0.306915 0.03175,0.02117 h 0.084666 v -0.02117 z M -3.568837,8.795491 h 0.09525 l -0.052916,0.042333 z m -2.1378265,1.735663 v 0.0635 h 0.042333 v -0.02117 z m 4.2439031,-1.9579123 h 0.042333 v 0.042333 h -0.042333 z m 0.50799839,-0.09525 0.0423332,0.03175 V 8.4250755 Z M -4.320251,10.74282 l 0.03175,-0.02117 0.021167,0.02117 v 0.03175 h -0.021167 z m 0.9630803,0.730248 v 0.05292 h -0.0635 z m 0.8678305,-1.18533 h 0.105833 l -0.0635,0.03175 z m 0,1.703911 h 0.021167 v 0.03175 h -0.0635 z M -5.5902469,9.0283236 h 0.03175 v 0.042333 h -0.03175 z m 3.4395723,3.6618234 h 0.03175 l -0.03175,0.08467 z m 1.98966037,-2.9209907 h 0.0317499 v 0.03175 h -0.0529165 z M -2.4893402,10.382988 h 0.074083 v 0.03175 z m -1.7356611,0.486831 h 0.021167 v 0.05292 h -0.021167 z m 2.2436595,2.973908 0.03175,-0.03175 v 0.03175 l -0.03175,0.03175 z m 1.76741107,-3.428989 0.0317499,0.03175 h -0.0634998 z m -4.91065107,-0.127 h 0.03175 v 0.03175 h -0.03175 z m 1.3546624,-1.4393305 h 0.03175 v 0.03175 h -0.03175 z m 3.27023958,-0.1164163 h 0.0423332 l -0.0211666,0.03175 h -0.0211666 z M -1.5156766,9.3458239 h 0.03175 v 0.03175 h -0.03175 z m 1.21707947,0.1481662 v -0.021167 h 0.0211666 v 0.0635 z m -3.29140617,1.8944109 0.021167,-0.03175 v 0.08467 z m -1.9367439,-1.100663 0.021167,0.03175 h -0.052916 z m 3.6935716,-1.5874971 h 0.052916 l -0.074083,0.03175 z m -1.4075788,0 0.021167,0.03175 h -0.052916 z m 2.1589931,0.4656667 0.052917,0.03175 h -0.052917 z m -2.5717418,2.7939904 0.03175,0.03175 h -0.052916 z M -4.108585,10.573487 h 0.021167 l 0.03175,0.02117 h -0.052916 z m 0.4021654,1.534579 v 0.04233 h -0.03175 z m 3.66182166,-1.820328 0.0211666,0.03175 -0.0211666,0.03175 z m -2.33890926,5.429233 h 0.03175 l -0.03175,0.04233 z m 1.85207748,-7.1013961 h 0.0317499 l -0.0317499,0.021167 h -0.0317499 z M -3.6535031,10.446487 h 0.0635 l -0.03175,0.02117 z m 0.2328326,0.275166 h 0.0635 l -0.0635,0.02117 z m -0.6032481,3.545406 0.021167,0.0635 h -0.021167 z m 1.2382461,1.608661 0.021167,0.03175 -0.021167,0.02117 z m 1.2064961,-7.2601451 0.03175,0.021167 h -0.052917 z m 0.4656652,0.645583 h 0.03175 v 0.03175 z m -1.7356611,2.4870751 h 0.03175 v 0.03175 z m 0.4656651,4.095737 0.03175,0.03175 h -0.03175 z m 0.1164163,-5.0694 h 0.03175 l -0.03175,0.03175 z m 2.08491007,-1.0900801 v 0.03175 h -0.0317499 z m 0.10583299,0.7302481 h 0.0317499 v 0.03175 z M -3.7699194,10.74282 h 0.03175 v 0.03175 z m 0.1799161,1.672161 0.021167,0.03175 h -0.021167 z m -1.7039113,-2.063743 0.021167,0.03175 h -0.021167 z m 1.9367439,2.550575 0.021167,0.03175 h -0.021167 z m -0.529165,2.095493 v 0.03175 l -0.021167,0.02117 z m 1.8309108,-6.3817311 0.021167,0.021167 v -0.021167 z m -1.9684937,3.0162421 0.021167,0.02117 h -0.021167 z m -0.084666,-0.127 0.021167,0.02117 h -0.021167 z"
         style="font-style:normal;font-variant:normal;font-weight:normal;font-stretch:normal;font-size:10.5833px;font-family:'Chalkaholic DEMO';-inkscape-font-specification:'Chalkaholic DEMO, Normal';font-variant-ligatures:normal;font-variant-caps:normal;font-variant-numeric:normal;font-variant-east-asian:normal;fill:#ffffff"
         id="path851"
         sodipodi:nodetypes="cccccccccccccccccccccccccccccccccccccccccccccccccccccccccccccccccccccccccccccccccccccccccccccccccccccccccccccccccccccccccccccccccccccccccccccccccccccccccccccccccccccccccccccccccccccccccccccccccccccccccccccccccccccccccccccccccccccccccccccccccccccccccccccccccccccccccccccccccccccccccccccccccccccccccccccccccccccccccccccccccccccccccccccccccccccccccccccccccccccccccccccccccccccccccccccccccccccccccccccccccccccccccccccccccccccccccccccccccccccccccccccccccccccccccccccccccccccccccccccccccccccccccccccccccccccccccccccccccccccccccccccccccccccccccccccccccccccccccccccccccccccccccccccccccccccccccccccccccccccccccccccccccccccccccccccccccccccccccccccccccccccccccccccccccccccccccccccccccccccccccccccccccccccccccccccccccccccccccccccccccccccccccccccccccccccccccccccccccccccccccccccccccccccccccccccccccccccccccccccccccccccccccccccccccc" />
    </g>
    <rect
       id="rect2846"
       style="fill:url(#linearGradient8953);stroke-width:0.00545457"
       height="0.45517057"
       width="3.2784419"
       y="17.480152"
       x="8.4463053"
       transform="matrix(-0.71218358,0.70199327,-0.71661537,-0.69746857,0,0)" />
    <path
       id="path2803"
       style="fill:url(#linearGradient2567);fill-opacity:1;stroke-width:0.294049;filter:url(#filter2668)"
       d="M 200.86248,101.95771 C 201.95075,84.714201 186.06489,47.50305 164.46104,35.102265 L 36.235388,160.03386 l 0.0078,0.009 9.866117,11.27701 c 25.128034,7.27483 142.718835,17.55517 142.718835,17.55517 z"
       sodipodi:nodetypes="ccccccc"
       transform="matrix(0.01630728,-0.0017002,0.00180346,0.01789,-21.753735,-6.8575216)" />
    <path
       id="rect1900"
       style="fill:#f9f9f9;stroke:#a1a1a1;stroke-width:0.0138587;stroke-linecap:round;stroke-linejoin:round;stroke-opacity:1"
       d="m -18.531042,-6.2627467 -2.334853,2.301444 c -0.253505,-0.098737 -0.399572,-0.2172433 -0.462096,-0.4497484 l 2.334854,-2.301444 c 0.119987,0.2393633 0.288632,0.3777586 0.462095,0.4497484 z"
       sodipodi:nodetypes="ccccc" />
    <ellipse
       style="fill:#ececec;stroke:#a0a0a0;stroke-width:0.033328;stroke-linecap:round;stroke-miterlimit:4;stroke-dasharray:none;stroke-opacity:1;paint-order:stroke markers fill"
       id="path2467"
       cx="-18.308245"
       cy="-8.0818195"
       rx="0.30983078"
       ry="0.081891418"
       transform="matrix(0.73003089,0.68341415,0.6672437,-0.74483948,0,0)" />
    <path
       id="rect2826"
       style="fill:url(#linearGradient8951);stroke-width:0.00604617"
       d="m -18.538493,-6.2819016 -2.383152,2.3045808 c -0.21649,-0.122508 -0.342412,-0.2820897 -0.406346,-0.4337303 l 2.327402,-2.320599 c 0.202261,0.071456 0.418096,0.2097607 0.462096,0.4497485 z"
       sodipodi:nodetypes="ccccc" />
    <path
       id="rect2826-7"
       style="fill:url(#linearGradient8951-1);stroke-width:0.0060462"
       d="m -18.960429,-6.7323319 -2.356024,2.3714468 c 0.05847,0.2007498 0.247189,0.3355578 0.431164,0.409067 l 2.371691,-2.3155966 c -0.07019,-0.2027071 -0.207124,-0.4194074 -0.446831,-0.4649172 z"
       sodipodi:nodetypes="ccccc" />
  </g>
</svg>
